%TF.GenerationSoftware,KiCad,Pcbnew,9.0.4*%
%TF.CreationDate,2025-08-21T12:34:08-03:00*%
%TF.ProjectId,EMI_SS_Supply_Electgpl,454d495f-5353-45f5-9375-70706c795f45,rev?*%
%TF.SameCoordinates,Original*%
%TF.FileFunction,Copper,L1,Top*%
%TF.FilePolarity,Positive*%
%FSLAX46Y46*%
G04 Gerber Fmt 4.6, Leading zero omitted, Abs format (unit mm)*
G04 Created by KiCad (PCBNEW 9.0.4) date 2025-08-21 12:34:08*
%MOMM*%
%LPD*%
G01*
G04 APERTURE LIST*
G04 Aperture macros list*
%AMRoundRect*
0 Rectangle with rounded corners*
0 $1 Rounding radius*
0 $2 $3 $4 $5 $6 $7 $8 $9 X,Y pos of 4 corners*
0 Add a 4 corners polygon primitive as box body*
4,1,4,$2,$3,$4,$5,$6,$7,$8,$9,$2,$3,0*
0 Add four circle primitives for the rounded corners*
1,1,$1+$1,$2,$3*
1,1,$1+$1,$4,$5*
1,1,$1+$1,$6,$7*
1,1,$1+$1,$8,$9*
0 Add four rect primitives between the rounded corners*
20,1,$1+$1,$2,$3,$4,$5,0*
20,1,$1+$1,$4,$5,$6,$7,0*
20,1,$1+$1,$6,$7,$8,$9,0*
20,1,$1+$1,$8,$9,$2,$3,0*%
G04 Aperture macros list end*
%TA.AperFunction,SMDPad,CuDef*%
%ADD10C,1.500000*%
%TD*%
%TA.AperFunction,SMDPad,CuDef*%
%ADD11C,0.500000*%
%TD*%
%TA.AperFunction,SMDPad,CuDef*%
%ADD12RoundRect,0.250000X-0.650000X0.325000X-0.650000X-0.325000X0.650000X-0.325000X0.650000X0.325000X0*%
%TD*%
%TA.AperFunction,SMDPad,CuDef*%
%ADD13RoundRect,0.225000X-0.250000X0.225000X-0.250000X-0.225000X0.250000X-0.225000X0.250000X0.225000X0*%
%TD*%
%TA.AperFunction,SMDPad,CuDef*%
%ADD14RoundRect,0.225000X-0.225000X-0.250000X0.225000X-0.250000X0.225000X0.250000X-0.225000X0.250000X0*%
%TD*%
%TA.AperFunction,SMDPad,CuDef*%
%ADD15R,1.505000X0.802000*%
%TD*%
%TA.AperFunction,SMDPad,CuDef*%
%ADD16R,2.613000X3.502000*%
%TD*%
%TA.AperFunction,SMDPad,CuDef*%
%ADD17RoundRect,0.200000X-0.200000X-0.275000X0.200000X-0.275000X0.200000X0.275000X-0.200000X0.275000X0*%
%TD*%
%TA.AperFunction,ComponentPad*%
%ADD18R,2.000000X2.000000*%
%TD*%
%TA.AperFunction,SMDPad,CuDef*%
%ADD19RoundRect,0.250000X-1.100000X0.325000X-1.100000X-0.325000X1.100000X-0.325000X1.100000X0.325000X0*%
%TD*%
%TA.AperFunction,SMDPad,CuDef*%
%ADD20RoundRect,0.250000X1.275000X-0.750000X1.275000X0.750000X-1.275000X0.750000X-1.275000X-0.750000X0*%
%TD*%
%TA.AperFunction,SMDPad,CuDef*%
%ADD21R,1.200000X1.200000*%
%TD*%
%TA.AperFunction,SMDPad,CuDef*%
%ADD22R,1.600000X1.500000*%
%TD*%
%TA.AperFunction,SMDPad,CuDef*%
%ADD23RoundRect,0.200000X0.200000X0.275000X-0.200000X0.275000X-0.200000X-0.275000X0.200000X-0.275000X0*%
%TD*%
%TA.AperFunction,SMDPad,CuDef*%
%ADD24RoundRect,0.200000X-0.275000X0.200000X-0.275000X-0.200000X0.275000X-0.200000X0.275000X0.200000X0*%
%TD*%
%TA.AperFunction,SMDPad,CuDef*%
%ADD25R,3.175000X4.950000*%
%TD*%
%TA.AperFunction,ViaPad*%
%ADD26C,3.100000*%
%TD*%
%TA.AperFunction,ViaPad*%
%ADD27C,0.600000*%
%TD*%
%TA.AperFunction,Conductor*%
%ADD28C,0.406400*%
%TD*%
%TA.AperFunction,Conductor*%
%ADD29C,0.609600*%
%TD*%
%TA.AperFunction,Conductor*%
%ADD30C,0.200000*%
%TD*%
G04 APERTURE END LIST*
D10*
%TO.P,TP5,1,1*%
%TO.N,Net-(U1-EN)*%
X107800000Y-96200000D03*
%TD*%
D11*
%TO.P,FID3,*%
%TO.N,*%
X106400000Y-98000000D03*
%TD*%
%TO.P,FID2,*%
%TO.N,*%
X108300000Y-85000000D03*
%TD*%
%TO.P,FID1,*%
%TO.N,*%
X134400000Y-96800000D03*
%TD*%
D12*
%TO.P,C1,1*%
%TO.N,Net-(U1-VIN)*%
X102100000Y-90125000D03*
%TO.P,C1,2*%
%TO.N,GND*%
X102100000Y-93075000D03*
%TD*%
D13*
%TO.P,C5,1*%
%TO.N,Net-(U1-SS)*%
X110400000Y-94325000D03*
%TO.P,C5,2*%
%TO.N,GND*%
X110400000Y-95875000D03*
%TD*%
D14*
%TO.P,C7,1*%
%TO.N,Net-(U1-FB)*%
X122225000Y-95600000D03*
%TO.P,C7,2*%
%TO.N,Net-(C10-Pad1)*%
X123775000Y-95600000D03*
%TD*%
D13*
%TO.P,C6,1*%
%TO.N,Net-(C6-Pad1)*%
X116300000Y-97425000D03*
%TO.P,C6,2*%
%TO.N,GND*%
X116300000Y-98975000D03*
%TD*%
D15*
%TO.P,U1,1,BST*%
%TO.N,Net-(U1-BST)*%
X110405000Y-88665000D03*
%TO.P,U1,2,VIN*%
%TO.N,Net-(U1-VIN)*%
X110405000Y-89935000D03*
%TO.P,U1,3,EN*%
%TO.N,Net-(U1-EN)*%
X110405000Y-91205000D03*
%TO.P,U1,4,SS*%
%TO.N,Net-(U1-SS)*%
X110405000Y-92475000D03*
%TO.P,U1,5,FB*%
%TO.N,Net-(U1-FB)*%
X115400000Y-92475000D03*
%TO.P,U1,6,COMP*%
%TO.N,Net-(U1-COMP)*%
X115400000Y-91205000D03*
%TO.P,U1,7,GND*%
%TO.N,GND*%
X115400000Y-89935000D03*
%TO.P,U1,8,SW*%
%TO.N,Net-(U1-SW)*%
X115400000Y-88665000D03*
D16*
%TO.P,U1,9,EP*%
%TO.N,GND*%
X112902500Y-90570000D03*
%TD*%
D17*
%TO.P,R4,1*%
%TO.N,Net-(U1-FB)*%
X122175000Y-97300000D03*
%TO.P,R4,2*%
%TO.N,Net-(R4-Pad2)*%
X123825000Y-97300000D03*
%TD*%
D13*
%TO.P,C4,1*%
%TO.N,Net-(U1-BST)*%
X115400000Y-85525000D03*
%TO.P,C4,2*%
%TO.N,Net-(U1-SW)*%
X115400000Y-87075000D03*
%TD*%
D18*
%TO.P,TP4,1,1*%
%TO.N,GND*%
X141800000Y-99600000D03*
%TD*%
D19*
%TO.P,C11,1*%
%TO.N,Net-(C10-Pad1)*%
X139100000Y-91825000D03*
%TO.P,C11,2*%
%TO.N,GND*%
X139100000Y-94775000D03*
%TD*%
%TO.P,C10,1*%
%TO.N,Net-(C10-Pad1)*%
X135700000Y-91825000D03*
%TO.P,C10,2*%
%TO.N,GND*%
X135700000Y-94775000D03*
%TD*%
D13*
%TO.P,C8,1*%
%TO.N,Net-(C10-Pad1)*%
X141600000Y-91750000D03*
%TO.P,C8,2*%
%TO.N,GND*%
X141600000Y-93300000D03*
%TD*%
%TO.P,C3,1*%
%TO.N,Net-(U1-VIN)*%
X106700000Y-90000000D03*
%TO.P,C3,2*%
%TO.N,GND*%
X106700000Y-91550000D03*
%TD*%
D20*
%TO.P,L2,1*%
%TO.N,Net-(C10-Pad1)*%
X135200000Y-87450000D03*
%TO.P,L2,2*%
%TO.N,Net-(C12-Pad1)*%
X135200000Y-82150000D03*
%TD*%
D21*
%TO.P,RV1,1,1*%
%TO.N,Net-(C10-Pad1)*%
X128300000Y-95650000D03*
D22*
%TO.P,RV1,2,2*%
%TO.N,Net-(R4-Pad2)*%
X127300000Y-98900000D03*
D21*
%TO.P,RV1,3,3*%
X126300000Y-95650000D03*
%TD*%
D23*
%TO.P,R3,1*%
%TO.N,Net-(U1-FB)*%
X120625000Y-97300000D03*
%TO.P,R3,2*%
%TO.N,GND*%
X118975000Y-97300000D03*
%TD*%
D24*
%TO.P,R1,1*%
%TO.N,Net-(U1-VIN)*%
X108300000Y-89950000D03*
%TO.P,R1,2*%
%TO.N,Net-(U1-EN)*%
X108300000Y-91600000D03*
%TD*%
D19*
%TO.P,C12,1*%
%TO.N,Net-(C12-Pad1)*%
X140800000Y-84425000D03*
%TO.P,C12,2*%
%TO.N,GND*%
X140800000Y-87375000D03*
%TD*%
D18*
%TO.P,TP3,1,1*%
%TO.N,Net-(C12-Pad1)*%
X141800000Y-81700000D03*
%TD*%
D19*
%TO.P,C9,1*%
%TO.N,Net-(C10-Pad1)*%
X132300000Y-91825000D03*
%TO.P,C9,2*%
%TO.N,GND*%
X132300000Y-94775000D03*
%TD*%
D12*
%TO.P,C2,1*%
%TO.N,Net-(U1-VIN)*%
X104600000Y-90125000D03*
%TO.P,C2,2*%
%TO.N,GND*%
X104600000Y-93075000D03*
%TD*%
D18*
%TO.P,TP1,1,1*%
%TO.N,Net-(U1-VIN)*%
X101700000Y-81700000D03*
%TD*%
%TO.P,TP2,1,1*%
%TO.N,GND*%
X101700000Y-99600000D03*
%TD*%
D24*
%TO.P,R2,1*%
%TO.N,Net-(U1-COMP)*%
X116300000Y-94275000D03*
%TO.P,R2,2*%
%TO.N,Net-(C6-Pad1)*%
X116300000Y-95925000D03*
%TD*%
D25*
%TO.P,L1,1*%
%TO.N,Net-(U1-SW)*%
X119292500Y-88675000D03*
%TO.P,L1,2*%
%TO.N,Net-(C10-Pad1)*%
X128307500Y-88675000D03*
%TD*%
D26*
%TO.N,*%
X137100000Y-98800000D03*
X106500000Y-82500000D03*
D27*
%TO.N,GND*%
X138075000Y-87741750D03*
X113945000Y-81391750D03*
X121565000Y-99171750D03*
X131725000Y-81391750D03*
X134265000Y-85201750D03*
X121565000Y-92821750D03*
X113800000Y-89400000D03*
X127915000Y-83931750D03*
X103785000Y-97901750D03*
X129185000Y-85201750D03*
X110135000Y-82661750D03*
X124105000Y-86471750D03*
X122835000Y-91551750D03*
X112000000Y-90000000D03*
X112000000Y-88800000D03*
X132995000Y-97901750D03*
X116485000Y-82661750D03*
X113800000Y-91200000D03*
X119025000Y-94091750D03*
X115215000Y-82661750D03*
X113800000Y-90000000D03*
X139345000Y-89011750D03*
X112000000Y-91800000D03*
X125375000Y-91551750D03*
X130455000Y-81391750D03*
X125375000Y-82661750D03*
X131725000Y-82661750D03*
X122835000Y-81391750D03*
X102515000Y-96631750D03*
X112000000Y-89400000D03*
X112900000Y-86400000D03*
X120295000Y-82661750D03*
X113800000Y-87000000D03*
X117755000Y-83931750D03*
X110135000Y-99171750D03*
X111405000Y-97901750D03*
X111405000Y-99171750D03*
X112675000Y-82661750D03*
X101245000Y-95361750D03*
X122835000Y-83931750D03*
X124105000Y-81391750D03*
X112900000Y-93600000D03*
X122835000Y-92821750D03*
X129185000Y-83931750D03*
X121565000Y-85201750D03*
X117755000Y-97901750D03*
X139800000Y-93600000D03*
X124105000Y-90281750D03*
X125375000Y-86471750D03*
X113945000Y-97901750D03*
X121565000Y-94091750D03*
X120295000Y-81391750D03*
X112902500Y-90570000D03*
X132995000Y-85201750D03*
X124105000Y-82661750D03*
X131725000Y-96631750D03*
X120295000Y-94091750D03*
X108865000Y-99171750D03*
X125375000Y-81391750D03*
X138400000Y-93600000D03*
X126645000Y-85201750D03*
X129185000Y-97901750D03*
X113800000Y-88800000D03*
X136400000Y-93600000D03*
X129185000Y-99171750D03*
X131725000Y-99171750D03*
X136805000Y-85201750D03*
X131700000Y-93600000D03*
X122835000Y-86471750D03*
X113800000Y-92400000D03*
X119025000Y-99171750D03*
X107595000Y-86471750D03*
X103785000Y-99171750D03*
X112900000Y-90000000D03*
X131725000Y-83931750D03*
X113800000Y-93000000D03*
X112000000Y-93600000D03*
X124105000Y-91551750D03*
X112900000Y-94800000D03*
X126645000Y-82661750D03*
X122835000Y-89011750D03*
X112902500Y-90570000D03*
X129185000Y-81391750D03*
X112675000Y-97901750D03*
X112000000Y-88800000D03*
X124105000Y-85201750D03*
X141885000Y-95361750D03*
X112675000Y-96631750D03*
X122835000Y-94091750D03*
X130455000Y-85201750D03*
X106325000Y-87741750D03*
X110135000Y-83931750D03*
X119025000Y-81391750D03*
X112000000Y-91200000D03*
X126645000Y-81391750D03*
X112900000Y-89400000D03*
X125375000Y-85201750D03*
X101245000Y-96631750D03*
X113945000Y-96631750D03*
X119025000Y-82661750D03*
X125375000Y-92821750D03*
X113945000Y-99171750D03*
X122835000Y-85201750D03*
X119025000Y-85201750D03*
X107595000Y-99171750D03*
X120295000Y-92821750D03*
X112000000Y-87000000D03*
X112900000Y-94200000D03*
X122835000Y-82661750D03*
X132995000Y-99171750D03*
X130455000Y-97901750D03*
X140615000Y-89011750D03*
X121565000Y-83931750D03*
X117755000Y-85201750D03*
X141885000Y-96631750D03*
X141885000Y-89011750D03*
X102515000Y-95361750D03*
X127915000Y-82661750D03*
X124105000Y-87741750D03*
X103785000Y-95361750D03*
X112900000Y-87000000D03*
X122835000Y-99171750D03*
X105055000Y-86471750D03*
X119025000Y-83931750D03*
X112900000Y-93000000D03*
X130455000Y-83931750D03*
X113800000Y-86400000D03*
X106325000Y-86471750D03*
X130455000Y-99171750D03*
X130455000Y-82661750D03*
X113800000Y-93600000D03*
X141500000Y-86100000D03*
X119025000Y-92821750D03*
X112675000Y-81391750D03*
X115215000Y-81391750D03*
X119025000Y-95361750D03*
X113800000Y-87600000D03*
X117755000Y-82661750D03*
X132995000Y-96631750D03*
X127915000Y-81391750D03*
X125375000Y-87741750D03*
X112900000Y-92400000D03*
X117755000Y-99171750D03*
X112000000Y-92400000D03*
X106325000Y-92821750D03*
X112675000Y-99171750D03*
X132995000Y-83931750D03*
X124105000Y-89011750D03*
X112000000Y-87600000D03*
X106325000Y-94091750D03*
X126645000Y-83931750D03*
X125375000Y-99171750D03*
X125375000Y-90281750D03*
X124105000Y-92821750D03*
X111405000Y-82661750D03*
X125375000Y-89011750D03*
X110135000Y-97901750D03*
X112900000Y-91200000D03*
X105055000Y-95361750D03*
X140100000Y-86100000D03*
X120295000Y-95361750D03*
X124105000Y-99171750D03*
X122835000Y-90281750D03*
X122835000Y-87741750D03*
X131725000Y-97901750D03*
X130455000Y-96631750D03*
X138075000Y-86471750D03*
X112000000Y-94800000D03*
X112000000Y-88200000D03*
X110135000Y-81391750D03*
X113800000Y-94200000D03*
X112000000Y-86400000D03*
X105055000Y-96631750D03*
X105055000Y-99171750D03*
X113800000Y-90600000D03*
X112000000Y-90600000D03*
X116485000Y-81391750D03*
X117755000Y-81391750D03*
X124105000Y-83931750D03*
X121565000Y-82661750D03*
X120295000Y-99171750D03*
X103785000Y-96631750D03*
X112900000Y-87600000D03*
X112900000Y-88200000D03*
X120295000Y-85201750D03*
X112900000Y-88800000D03*
X126645000Y-92821750D03*
X135000000Y-93600000D03*
X111405000Y-81391750D03*
X132900000Y-93600000D03*
X129185000Y-82661750D03*
X106325000Y-99171750D03*
X131725000Y-85201750D03*
X113800000Y-94800000D03*
X113800000Y-88200000D03*
X113800000Y-91800000D03*
X112900000Y-91800000D03*
X112000000Y-94200000D03*
X105055000Y-97901750D03*
X127915000Y-85201750D03*
X113945000Y-82661750D03*
X121565000Y-81391750D03*
X135535000Y-85201750D03*
X120295000Y-83931750D03*
X125375000Y-83931750D03*
X112000000Y-93000000D03*
%TO.N,Net-(U1-BST)*%
X116500000Y-85600000D03*
X108900000Y-88600000D03*
%TO.N,Net-(U1-FB)*%
X115100000Y-94100000D03*
X121400000Y-97300000D03*
%TD*%
D28*
%TO.N,Net-(U1-EN)*%
X107800000Y-94000000D02*
X107800000Y-96200000D01*
X108300000Y-93500000D02*
X107800000Y-94000000D01*
X108300000Y-91600000D02*
X108300000Y-93500000D01*
D29*
%TO.N,Net-(U1-BST)*%
X108900000Y-88600000D02*
X110340000Y-88600000D01*
X116425000Y-85525000D02*
X115400000Y-85525000D01*
D30*
X110340000Y-88600000D02*
X110405000Y-88665000D01*
D29*
X116500000Y-85600000D02*
X116425000Y-85525000D01*
%TO.N,Net-(U1-SW)*%
X115400000Y-87075000D02*
X115400000Y-88665000D01*
D30*
%TO.N,Net-(U1-SS)*%
X110405000Y-94320000D02*
X110400000Y-94325000D01*
D29*
X110405000Y-92475000D02*
X110405000Y-94320000D01*
%TO.N,Net-(C6-Pad1)*%
X116300000Y-95925000D02*
X116300000Y-97425000D01*
D28*
%TO.N,Net-(U1-FB)*%
X122225000Y-97250000D02*
X122175000Y-97300000D01*
X115400000Y-93800000D02*
X115100000Y-94100000D01*
X115400000Y-92475000D02*
X115400000Y-93800000D01*
X122225000Y-95600000D02*
X122225000Y-97250000D01*
X120625000Y-97300000D02*
X122175000Y-97300000D01*
%TO.N,Net-(R4-Pad2)*%
X127300000Y-98900000D02*
X127300000Y-97600000D01*
X125600000Y-97300000D02*
X126300000Y-96600000D01*
X126300000Y-96600000D02*
X126300000Y-95650000D01*
X123825000Y-97300000D02*
X125600000Y-97300000D01*
X127300000Y-97600000D02*
X126300000Y-96600000D01*
%TO.N,Net-(C10-Pad1)*%
X123775000Y-95600000D02*
X123775000Y-94825000D01*
X128300000Y-94400000D02*
X128300000Y-95650000D01*
X128300000Y-88682500D02*
X128307500Y-88675000D01*
X128300000Y-95650000D02*
X128300000Y-88682500D01*
X124200000Y-94400000D02*
X128300000Y-94400000D01*
X123775000Y-94825000D02*
X124200000Y-94400000D01*
%TO.N,Net-(U1-EN)*%
X110405000Y-91205000D02*
X108695000Y-91205000D01*
X108695000Y-91205000D02*
X108300000Y-91600000D01*
D29*
%TO.N,Net-(U1-COMP)*%
X117000000Y-93575000D02*
X116300000Y-94275000D01*
X116505000Y-91205000D02*
X117000000Y-91700000D01*
X117000000Y-91700000D02*
X117000000Y-93575000D01*
X115400000Y-91205000D02*
X116505000Y-91205000D01*
%TD*%
%TA.AperFunction,Conductor*%
%TO.N,Net-(R4-Pad2)*%
G36*
X126743039Y-95219685D02*
G01*
X126788794Y-95272489D01*
X126800000Y-95324000D01*
X126800000Y-96200000D01*
X128063681Y-97463681D01*
X128097166Y-97525004D01*
X128100000Y-97551362D01*
X128100000Y-98448638D01*
X128091355Y-98478078D01*
X128084832Y-98508065D01*
X128081077Y-98513080D01*
X128080315Y-98515677D01*
X128063681Y-98536319D01*
X127936319Y-98663681D01*
X127874996Y-98697166D01*
X127848638Y-98700000D01*
X126551362Y-98700000D01*
X126484323Y-98680315D01*
X126463681Y-98663681D01*
X125500000Y-97700000D01*
X123851362Y-97700000D01*
X123821921Y-97691355D01*
X123791935Y-97684832D01*
X123786919Y-97681077D01*
X123784323Y-97680315D01*
X123763681Y-97663681D01*
X123636319Y-97536319D01*
X123602834Y-97474996D01*
X123600000Y-97448638D01*
X123600000Y-97024000D01*
X123619685Y-96956961D01*
X123672489Y-96911206D01*
X123724000Y-96900000D01*
X124100000Y-96900000D01*
X125763681Y-95236319D01*
X125825004Y-95202834D01*
X125851362Y-95200000D01*
X126676000Y-95200000D01*
X126743039Y-95219685D01*
G37*
%TD.AperFunction*%
%TD*%
%TA.AperFunction,Conductor*%
%TO.N,Net-(U1-SW)*%
G36*
X118443039Y-86219685D02*
G01*
X118488794Y-86272489D01*
X118500000Y-86324000D01*
X118500000Y-90976000D01*
X118480315Y-91043039D01*
X118427511Y-91088794D01*
X118376000Y-91100000D01*
X117824000Y-91100000D01*
X117756961Y-91080315D01*
X117711206Y-91027511D01*
X117700000Y-90976000D01*
X117700000Y-90100000D01*
X116500000Y-88900000D01*
X115124000Y-88900000D01*
X115056961Y-88880315D01*
X115011206Y-88827511D01*
X115000000Y-88776000D01*
X115000000Y-86824000D01*
X115019685Y-86756961D01*
X115072489Y-86711206D01*
X115124000Y-86700000D01*
X117200000Y-86700000D01*
X117663681Y-86236319D01*
X117725004Y-86202834D01*
X117751362Y-86200000D01*
X118376000Y-86200000D01*
X118443039Y-86219685D01*
G37*
%TD.AperFunction*%
%TD*%
%TA.AperFunction,Conductor*%
%TO.N,Net-(C12-Pad1)*%
G36*
X142743039Y-80719685D02*
G01*
X142788794Y-80772489D01*
X142800000Y-80824000D01*
X142800000Y-84048638D01*
X142780315Y-84115677D01*
X142763681Y-84136319D01*
X142036319Y-84863681D01*
X141974996Y-84897166D01*
X141948638Y-84900000D01*
X139351362Y-84900000D01*
X139284323Y-84880315D01*
X139263681Y-84863681D01*
X137500000Y-83100000D01*
X133951362Y-83100000D01*
X133921921Y-83091355D01*
X133891935Y-83084832D01*
X133886919Y-83081077D01*
X133884323Y-83080315D01*
X133863681Y-83063681D01*
X133836319Y-83036319D01*
X133802834Y-82974996D01*
X133800000Y-82948638D01*
X133800000Y-81351362D01*
X133819685Y-81284323D01*
X133836319Y-81263681D01*
X134363681Y-80736319D01*
X134425004Y-80702834D01*
X134451362Y-80700000D01*
X142676000Y-80700000D01*
X142743039Y-80719685D01*
G37*
%TD.AperFunction*%
%TD*%
%TA.AperFunction,Conductor*%
%TO.N,Net-(C10-Pad1)*%
G36*
X136415677Y-86219685D02*
G01*
X136436319Y-86236319D01*
X137163681Y-86963681D01*
X137197166Y-87025004D01*
X137200000Y-87051362D01*
X137200000Y-89000000D01*
X138400000Y-90200000D01*
X141648638Y-90200000D01*
X141715677Y-90219685D01*
X141736319Y-90236319D01*
X141963681Y-90463681D01*
X141997166Y-90525004D01*
X142000000Y-90551362D01*
X142000000Y-92048638D01*
X141991355Y-92078078D01*
X141984832Y-92108065D01*
X141981077Y-92113080D01*
X141980315Y-92115677D01*
X141963681Y-92136319D01*
X141836319Y-92263681D01*
X141774996Y-92297166D01*
X141748638Y-92300000D01*
X128600000Y-92300000D01*
X128500000Y-92200000D01*
X128100000Y-92200000D01*
X128000000Y-92300000D01*
X126836319Y-91136319D01*
X126802834Y-91074996D01*
X126800000Y-91048638D01*
X126800000Y-86324000D01*
X126819685Y-86256961D01*
X126872489Y-86211206D01*
X126924000Y-86200000D01*
X136348638Y-86200000D01*
X136415677Y-86219685D01*
G37*
%TD.AperFunction*%
%TD*%
%TA.AperFunction,Conductor*%
%TO.N,Net-(U1-VIN)*%
G36*
X102643039Y-80719685D02*
G01*
X102688794Y-80772489D01*
X102700000Y-80824000D01*
X102700000Y-86300000D01*
X105200000Y-88800000D01*
X107848638Y-88800000D01*
X107915677Y-88819685D01*
X107936319Y-88836319D01*
X108700000Y-89600000D01*
X110971500Y-89600000D01*
X111038539Y-89619685D01*
X111084294Y-89672489D01*
X111095500Y-89724000D01*
X111095500Y-90176000D01*
X111075815Y-90243039D01*
X111023011Y-90288794D01*
X110971500Y-90300000D01*
X105799999Y-90300000D01*
X105361319Y-90738681D01*
X105299996Y-90772166D01*
X105273638Y-90775000D01*
X101451362Y-90775000D01*
X101384323Y-90755315D01*
X101363681Y-90738681D01*
X100736319Y-90111319D01*
X100702834Y-90049996D01*
X100700000Y-90023638D01*
X100700000Y-80824000D01*
X100719685Y-80756961D01*
X100772489Y-80711206D01*
X100824000Y-80700000D01*
X102576000Y-80700000D01*
X102643039Y-80719685D01*
G37*
%TD.AperFunction*%
%TD*%
%TA.AperFunction,Conductor*%
%TO.N,Net-(U1-FB)*%
G36*
X122443039Y-95219685D02*
G01*
X122488794Y-95272489D01*
X122500000Y-95324000D01*
X122500000Y-97576000D01*
X122480315Y-97643039D01*
X122427511Y-97688794D01*
X122376000Y-97700000D01*
X120424000Y-97700000D01*
X120356961Y-97680315D01*
X120311206Y-97627511D01*
X120300000Y-97576000D01*
X120300000Y-96951362D01*
X120319685Y-96884323D01*
X120336319Y-96863681D01*
X121963681Y-95236319D01*
X122025004Y-95202834D01*
X122051362Y-95200000D01*
X122376000Y-95200000D01*
X122443039Y-95219685D01*
G37*
%TD.AperFunction*%
%TD*%
%TA.AperFunction,Conductor*%
%TO.N,Net-(C10-Pad1)*%
G36*
X128600000Y-92300000D02*
G01*
X128600000Y-94800000D01*
X128863681Y-95063681D01*
X128878384Y-95090608D01*
X128894977Y-95116427D01*
X128895868Y-95122627D01*
X128897166Y-95125004D01*
X128900000Y-95151362D01*
X128900000Y-95248638D01*
X128880315Y-95315677D01*
X128863681Y-95336319D01*
X128836319Y-95363681D01*
X128774996Y-95397166D01*
X128748638Y-95400000D01*
X127851362Y-95400000D01*
X127784323Y-95380315D01*
X127763681Y-95363681D01*
X127736319Y-95336319D01*
X127702834Y-95274996D01*
X127700000Y-95248638D01*
X127700000Y-95000000D01*
X127300000Y-94600000D01*
X127148069Y-94600000D01*
X127104736Y-94592182D01*
X127007482Y-94555908D01*
X127007483Y-94555908D01*
X126947883Y-94549501D01*
X126947881Y-94549500D01*
X126947873Y-94549500D01*
X126947864Y-94549500D01*
X125652129Y-94549500D01*
X125652123Y-94549501D01*
X125592516Y-94555908D01*
X125495264Y-94592182D01*
X125451931Y-94600000D01*
X124499999Y-94600000D01*
X124100000Y-94999999D01*
X124100000Y-95576000D01*
X124080315Y-95643039D01*
X124027511Y-95688794D01*
X123976000Y-95700000D01*
X123551362Y-95700000D01*
X123521921Y-95691355D01*
X123491935Y-95684832D01*
X123486919Y-95681077D01*
X123484323Y-95680315D01*
X123463681Y-95663681D01*
X123436319Y-95636319D01*
X123402834Y-95574996D01*
X123400000Y-95548638D01*
X123400000Y-94751362D01*
X123419685Y-94684323D01*
X123436319Y-94663681D01*
X124063681Y-94036319D01*
X124125004Y-94002834D01*
X124151362Y-94000000D01*
X127400000Y-94000000D01*
X128000000Y-93400000D01*
X128000000Y-92300000D01*
X128100000Y-92200000D01*
X128500000Y-92200000D01*
X128600000Y-92300000D01*
G37*
%TD.AperFunction*%
%TD*%
%TA.AperFunction,Conductor*%
%TO.N,GND*%
G36*
X105466500Y-80520185D02*
G01*
X105512255Y-80572989D01*
X105522199Y-80642147D01*
X105493174Y-80705703D01*
X105461461Y-80731887D01*
X105358354Y-80791416D01*
X105145111Y-80955042D01*
X105145104Y-80955048D01*
X104955048Y-81145104D01*
X104955042Y-81145111D01*
X104791416Y-81358354D01*
X104657019Y-81591133D01*
X104657011Y-81591149D01*
X104554152Y-81839475D01*
X104484585Y-82099106D01*
X104484582Y-82099119D01*
X104449500Y-82365602D01*
X104449500Y-82634397D01*
X104484582Y-82900880D01*
X104484583Y-82900885D01*
X104484584Y-82900891D01*
X104484585Y-82900893D01*
X104554152Y-83160524D01*
X104657011Y-83408850D01*
X104657019Y-83408866D01*
X104737830Y-83548832D01*
X104791413Y-83641641D01*
X104791415Y-83641644D01*
X104791416Y-83641645D01*
X104955042Y-83854888D01*
X104955048Y-83854895D01*
X105145104Y-84044951D01*
X105145110Y-84044956D01*
X105358359Y-84208587D01*
X105507968Y-84294964D01*
X105591133Y-84342980D01*
X105591149Y-84342988D01*
X105746008Y-84407132D01*
X105839474Y-84445847D01*
X106099109Y-84515416D01*
X106287319Y-84540193D01*
X106365602Y-84550500D01*
X106365603Y-84550500D01*
X106634398Y-84550500D01*
X106694905Y-84542534D01*
X106900891Y-84515416D01*
X107160526Y-84445847D01*
X107347457Y-84368417D01*
X107408850Y-84342988D01*
X107408853Y-84342986D01*
X107408859Y-84342984D01*
X107641641Y-84208587D01*
X107854890Y-84044956D01*
X108044956Y-83854890D01*
X108208587Y-83641641D01*
X108342984Y-83408859D01*
X108445847Y-83160526D01*
X108515416Y-82900891D01*
X108550500Y-82634397D01*
X108550500Y-82365603D01*
X108515416Y-82099109D01*
X108445847Y-81839474D01*
X108407132Y-81746008D01*
X108342988Y-81591149D01*
X108342980Y-81591133D01*
X108294964Y-81507968D01*
X108208587Y-81358359D01*
X108044956Y-81145110D01*
X108044951Y-81145104D01*
X107854895Y-80955048D01*
X107854888Y-80955042D01*
X107641645Y-80791416D01*
X107641644Y-80791415D01*
X107641641Y-80791413D01*
X107538538Y-80731886D01*
X107490323Y-80681320D01*
X107477101Y-80612712D01*
X107503069Y-80547848D01*
X107559983Y-80507320D01*
X107600539Y-80500500D01*
X133516489Y-80500500D01*
X133583528Y-80520185D01*
X133629283Y-80572989D01*
X133639227Y-80642147D01*
X133610202Y-80705703D01*
X133581587Y-80730037D01*
X133504663Y-80777485D01*
X133456342Y-80807289D01*
X133332289Y-80931342D01*
X133240187Y-81080663D01*
X133240186Y-81080666D01*
X133185001Y-81247203D01*
X133185001Y-81247204D01*
X133185000Y-81247204D01*
X133174500Y-81349983D01*
X133174500Y-82950001D01*
X133174501Y-82950018D01*
X133185000Y-83052796D01*
X133185001Y-83052799D01*
X133220698Y-83160524D01*
X133240186Y-83219334D01*
X133332288Y-83368656D01*
X133456344Y-83492712D01*
X133605666Y-83584814D01*
X133772203Y-83639999D01*
X133874991Y-83650500D01*
X136525008Y-83650499D01*
X136627797Y-83639999D01*
X136712914Y-83611794D01*
X136751918Y-83605500D01*
X137239254Y-83605500D01*
X137306293Y-83625185D01*
X137326935Y-83641819D01*
X138906239Y-85221123D01*
X138906255Y-85221137D01*
X138906262Y-85221144D01*
X138946480Y-85257271D01*
X138946492Y-85257281D01*
X138946500Y-85257288D01*
X138967142Y-85273922D01*
X139011026Y-85305567D01*
X139141903Y-85365338D01*
X139208942Y-85385023D01*
X139208946Y-85385024D01*
X139302088Y-85398415D01*
X139349539Y-85415615D01*
X139380657Y-85434809D01*
X139380660Y-85434810D01*
X139380666Y-85434814D01*
X139547203Y-85489999D01*
X139649991Y-85500500D01*
X141950008Y-85500499D01*
X142052797Y-85489999D01*
X142219334Y-85434814D01*
X142368656Y-85342712D01*
X142492712Y-85218656D01*
X142584814Y-85069334D01*
X142595027Y-85038510D01*
X142601872Y-85027411D01*
X142603902Y-85018083D01*
X142625046Y-84989836D01*
X142787822Y-84827061D01*
X142849142Y-84793579D01*
X142918834Y-84798563D01*
X142974767Y-84840435D01*
X142999184Y-84905899D01*
X142999500Y-84914745D01*
X142999500Y-100675500D01*
X142979815Y-100742539D01*
X142927011Y-100788294D01*
X142875500Y-100799500D01*
X138200539Y-100799500D01*
X138133500Y-100779815D01*
X138087745Y-100727011D01*
X138077801Y-100657853D01*
X138106826Y-100594297D01*
X138138539Y-100568113D01*
X138241641Y-100508587D01*
X138454890Y-100344956D01*
X138644956Y-100154890D01*
X138808587Y-99941641D01*
X138942984Y-99708859D01*
X138947531Y-99697883D01*
X138968417Y-99647457D01*
X139045847Y-99460526D01*
X139115416Y-99200891D01*
X139150500Y-98934397D01*
X139150500Y-98665603D01*
X139115416Y-98399109D01*
X139045847Y-98139474D01*
X138988008Y-97999838D01*
X138942988Y-97891149D01*
X138942980Y-97891133D01*
X138833896Y-97702196D01*
X138808587Y-97658359D01*
X138685010Y-97497310D01*
X138644957Y-97445111D01*
X138644951Y-97445104D01*
X138454895Y-97255048D01*
X138454888Y-97255042D01*
X138241645Y-97091416D01*
X138241644Y-97091415D01*
X138241641Y-97091413D01*
X138138359Y-97031783D01*
X138008866Y-96957019D01*
X138008850Y-96957011D01*
X137760524Y-96854152D01*
X137630708Y-96819368D01*
X137500891Y-96784584D01*
X137500885Y-96784583D01*
X137500880Y-96784582D01*
X137234398Y-96749500D01*
X137234397Y-96749500D01*
X136965603Y-96749500D01*
X136965602Y-96749500D01*
X136699119Y-96784582D01*
X136699112Y-96784583D01*
X136699109Y-96784584D01*
X136644239Y-96799286D01*
X136439475Y-96854152D01*
X136191149Y-96957011D01*
X136191133Y-96957019D01*
X135958354Y-97091416D01*
X135745111Y-97255042D01*
X135745104Y-97255048D01*
X135555048Y-97445104D01*
X135555042Y-97445111D01*
X135391416Y-97658354D01*
X135257019Y-97891133D01*
X135257011Y-97891149D01*
X135154152Y-98139475D01*
X135084585Y-98399106D01*
X135084582Y-98399119D01*
X135049500Y-98665602D01*
X135049500Y-98934397D01*
X135084582Y-99200880D01*
X135084583Y-99200885D01*
X135084584Y-99200891D01*
X135084585Y-99200893D01*
X135154152Y-99460524D01*
X135257011Y-99708850D01*
X135257019Y-99708866D01*
X135337830Y-99848832D01*
X135391413Y-99941641D01*
X135391415Y-99941644D01*
X135391416Y-99941645D01*
X135555042Y-100154888D01*
X135555048Y-100154895D01*
X135745104Y-100344951D01*
X135745110Y-100344956D01*
X135958359Y-100508587D01*
X136061461Y-100568113D01*
X136109677Y-100618680D01*
X136122899Y-100687288D01*
X136096931Y-100752152D01*
X136040017Y-100792680D01*
X135999461Y-100799500D01*
X100624500Y-100799500D01*
X100557461Y-100779815D01*
X100511706Y-100727011D01*
X100500500Y-100675500D01*
X100500500Y-97920943D01*
X105799500Y-97920943D01*
X105799500Y-98079057D01*
X105838062Y-98222970D01*
X105840423Y-98231783D01*
X105840426Y-98231790D01*
X105919475Y-98368709D01*
X105919479Y-98368714D01*
X105919480Y-98368716D01*
X106031284Y-98480520D01*
X106031286Y-98480521D01*
X106031290Y-98480524D01*
X106168209Y-98559573D01*
X106168216Y-98559577D01*
X106320943Y-98600500D01*
X106320945Y-98600500D01*
X106479055Y-98600500D01*
X106479057Y-98600500D01*
X106631784Y-98559577D01*
X106768716Y-98480520D01*
X106880520Y-98368716D01*
X106959577Y-98231784D01*
X107000500Y-98079057D01*
X107000500Y-97920943D01*
X106959577Y-97768216D01*
X106921461Y-97702196D01*
X106880524Y-97631290D01*
X106880518Y-97631282D01*
X106768717Y-97519481D01*
X106768709Y-97519475D01*
X106631790Y-97440426D01*
X106631786Y-97440424D01*
X106631784Y-97440423D01*
X106479057Y-97399500D01*
X106320943Y-97399500D01*
X106168216Y-97440423D01*
X106168209Y-97440426D01*
X106031290Y-97519475D01*
X106031282Y-97519481D01*
X105919481Y-97631282D01*
X105919475Y-97631290D01*
X105840426Y-97768209D01*
X105840423Y-97768216D01*
X105799500Y-97920943D01*
X100500500Y-97920943D01*
X100500500Y-90889746D01*
X100520185Y-90822707D01*
X100572989Y-90776952D01*
X100642147Y-90767008D01*
X100705703Y-90796033D01*
X100712181Y-90802065D01*
X101006239Y-91096123D01*
X101006246Y-91096129D01*
X101006262Y-91096144D01*
X101046480Y-91132271D01*
X101046492Y-91132281D01*
X101046500Y-91132288D01*
X101067142Y-91148922D01*
X101111026Y-91180567D01*
X101241903Y-91240338D01*
X101308942Y-91260023D01*
X101308946Y-91260024D01*
X101451362Y-91280500D01*
X101451365Y-91280500D01*
X105273640Y-91280500D01*
X105283786Y-91279955D01*
X105327678Y-91277603D01*
X105327686Y-91277602D01*
X105327688Y-91277602D01*
X105327689Y-91277602D01*
X105334682Y-91276849D01*
X105354036Y-91274769D01*
X105354046Y-91274767D01*
X105354049Y-91274767D01*
X105366162Y-91272804D01*
X105407448Y-91266114D01*
X105542257Y-91215832D01*
X105603580Y-91182347D01*
X105718762Y-91096123D01*
X105939973Y-90874910D01*
X106001293Y-90841427D01*
X106070985Y-90846411D01*
X106092750Y-90857055D01*
X106141299Y-90887001D01*
X106141300Y-90887001D01*
X106141303Y-90887003D01*
X106302292Y-90940349D01*
X106401655Y-90950500D01*
X106998344Y-90950499D01*
X106998352Y-90950498D01*
X106998355Y-90950498D01*
X107052760Y-90944940D01*
X107097708Y-90940349D01*
X107258697Y-90887003D01*
X107258702Y-90886999D01*
X107262214Y-90885836D01*
X107332043Y-90883434D01*
X107392085Y-90919165D01*
X107423278Y-90981686D01*
X107415718Y-91051145D01*
X107407337Y-91067691D01*
X107381522Y-91110394D01*
X107330913Y-91272807D01*
X107324500Y-91343386D01*
X107324500Y-91856613D01*
X107330913Y-91927192D01*
X107330913Y-91927194D01*
X107330914Y-91927196D01*
X107343167Y-91966517D01*
X107381522Y-92089606D01*
X107469530Y-92235188D01*
X107559981Y-92325639D01*
X107593466Y-92386962D01*
X107596300Y-92413320D01*
X107596300Y-93157155D01*
X107576615Y-93224194D01*
X107559981Y-93244836D01*
X107459283Y-93345534D01*
X107351420Y-93453397D01*
X107351417Y-93453400D01*
X107326606Y-93478211D01*
X107253400Y-93551416D01*
X107186582Y-93651418D01*
X107186582Y-93651419D01*
X107176387Y-93666675D01*
X107176386Y-93666677D01*
X107123343Y-93794735D01*
X107123341Y-93794743D01*
X107096299Y-93930689D01*
X107096299Y-94075421D01*
X107096300Y-94075442D01*
X107096300Y-95102383D01*
X107076615Y-95169422D01*
X107045187Y-95202700D01*
X106985354Y-95246171D01*
X106846174Y-95385351D01*
X106846174Y-95385352D01*
X106846172Y-95385354D01*
X106809816Y-95435393D01*
X106730476Y-95544594D01*
X106641117Y-95719970D01*
X106580290Y-95907173D01*
X106549500Y-96101577D01*
X106549500Y-96298422D01*
X106580290Y-96492826D01*
X106641117Y-96680029D01*
X106718125Y-96831165D01*
X106730476Y-96855405D01*
X106846172Y-97014646D01*
X106985354Y-97153828D01*
X107144595Y-97269524D01*
X107170547Y-97282747D01*
X107319970Y-97358882D01*
X107319972Y-97358882D01*
X107319975Y-97358884D01*
X107420317Y-97391487D01*
X107507173Y-97419709D01*
X107701578Y-97450500D01*
X107701583Y-97450500D01*
X107898422Y-97450500D01*
X108092826Y-97419709D01*
X108099458Y-97417554D01*
X108280025Y-97358884D01*
X108455405Y-97269524D01*
X108614646Y-97153828D01*
X108753828Y-97014646D01*
X108869524Y-96855405D01*
X108958884Y-96680025D01*
X109019709Y-96492826D01*
X109023399Y-96469526D01*
X109050500Y-96298422D01*
X109050500Y-96101577D01*
X109019709Y-95907173D01*
X108958882Y-95719970D01*
X108896635Y-95597804D01*
X108869524Y-95544595D01*
X108753828Y-95385354D01*
X108614646Y-95246172D01*
X108554813Y-95202700D01*
X108512148Y-95147370D01*
X108503700Y-95102383D01*
X108503700Y-94342843D01*
X108523385Y-94275804D01*
X108540015Y-94255166D01*
X108748579Y-94046602D01*
X108748583Y-94046600D01*
X108846600Y-93948583D01*
X108923611Y-93833327D01*
X108941018Y-93791303D01*
X108976658Y-93705262D01*
X109003701Y-93569308D01*
X109003701Y-93430691D01*
X109003701Y-93425581D01*
X109003700Y-93425555D01*
X109003700Y-93217037D01*
X109023385Y-93149998D01*
X109076189Y-93104243D01*
X109145347Y-93094299D01*
X109208903Y-93123324D01*
X109226962Y-93142721D01*
X109294954Y-93233546D01*
X109341143Y-93268123D01*
X109410164Y-93319793D01*
X109410173Y-93319798D01*
X109479176Y-93345534D01*
X109519032Y-93360399D01*
X109536758Y-93373668D01*
X109556903Y-93382868D01*
X109564184Y-93394198D01*
X109574966Y-93402269D01*
X109582704Y-93423017D01*
X109594677Y-93441646D01*
X109597828Y-93463561D01*
X109599384Y-93467733D01*
X109599700Y-93476581D01*
X109599700Y-93575187D01*
X109580491Y-93640604D01*
X109580823Y-93640809D01*
X109580074Y-93642021D01*
X109580015Y-93642226D01*
X109579529Y-93642905D01*
X109488001Y-93791294D01*
X109487996Y-93791305D01*
X109434651Y-93952290D01*
X109424500Y-94051647D01*
X109424500Y-94598337D01*
X109424501Y-94598355D01*
X109434650Y-94697707D01*
X109434651Y-94697710D01*
X109487996Y-94858694D01*
X109488001Y-94858705D01*
X109577029Y-95003040D01*
X109577032Y-95003044D01*
X109696955Y-95122967D01*
X109696959Y-95122970D01*
X109841294Y-95211998D01*
X109841297Y-95211999D01*
X109841303Y-95212003D01*
X110002292Y-95265349D01*
X110101655Y-95275500D01*
X110698344Y-95275499D01*
X110698352Y-95275498D01*
X110698355Y-95275498D01*
X110752760Y-95269940D01*
X110797708Y-95265349D01*
X110958697Y-95212003D01*
X111103044Y-95122968D01*
X111222968Y-95003044D01*
X111312003Y-94858697D01*
X111365349Y-94697708D01*
X111375500Y-94598345D01*
X111375499Y-94051656D01*
X111365349Y-93952292D01*
X111312003Y-93791303D01*
X111311999Y-93791297D01*
X111311998Y-93791294D01*
X111228762Y-93656348D01*
X111224066Y-93639790D01*
X111215323Y-93626186D01*
X111210300Y-93591251D01*
X111210300Y-93476581D01*
X111229985Y-93409542D01*
X111282789Y-93363787D01*
X111290962Y-93360401D01*
X111399831Y-93319796D01*
X111515046Y-93233546D01*
X111601296Y-93118331D01*
X111651591Y-92983483D01*
X111658000Y-92923873D01*
X111657999Y-92026128D01*
X111651591Y-91966517D01*
X111620564Y-91883331D01*
X111615581Y-91813642D01*
X111620562Y-91796673D01*
X111651591Y-91713483D01*
X111658000Y-91653873D01*
X111657999Y-90756128D01*
X111651591Y-90696517D01*
X111620564Y-90613331D01*
X111615581Y-90543642D01*
X111620562Y-90526673D01*
X111651591Y-90443483D01*
X111658000Y-90383873D01*
X111657999Y-89486128D01*
X111651591Y-89426517D01*
X111620564Y-89343331D01*
X111615581Y-89273642D01*
X111620562Y-89256673D01*
X111651591Y-89173483D01*
X111658000Y-89113873D01*
X111657999Y-88216135D01*
X114147000Y-88216135D01*
X114147000Y-89113870D01*
X114147001Y-89113876D01*
X114153408Y-89173483D01*
X114203702Y-89308328D01*
X114203706Y-89308335D01*
X114289952Y-89423544D01*
X114289955Y-89423547D01*
X114405164Y-89509793D01*
X114405171Y-89509797D01*
X114540017Y-89560091D01*
X114540016Y-89560091D01*
X114546944Y-89560835D01*
X114599627Y-89566500D01*
X116200372Y-89566499D01*
X116259983Y-89560091D01*
X116320225Y-89537621D01*
X116389916Y-89532638D01*
X116451239Y-89566123D01*
X117158181Y-90273065D01*
X117172884Y-90299992D01*
X117189477Y-90325811D01*
X117190368Y-90332011D01*
X117191666Y-90334388D01*
X117194500Y-90360746D01*
X117194500Y-90465194D01*
X117174815Y-90532233D01*
X117122011Y-90577988D01*
X117052853Y-90587932D01*
X117001609Y-90568296D01*
X116886459Y-90491355D01*
X116886446Y-90491348D01*
X116739901Y-90430648D01*
X116739891Y-90430645D01*
X116584317Y-90399699D01*
X116584315Y-90399699D01*
X116488860Y-90399699D01*
X116421821Y-90380014D01*
X116414566Y-90374978D01*
X116394831Y-90360204D01*
X116394828Y-90360203D01*
X116394827Y-90360202D01*
X116259982Y-90309908D01*
X116259983Y-90309908D01*
X116200383Y-90303501D01*
X116200381Y-90303500D01*
X116200373Y-90303500D01*
X116200364Y-90303500D01*
X114599629Y-90303500D01*
X114599623Y-90303501D01*
X114540016Y-90309908D01*
X114405171Y-90360202D01*
X114405164Y-90360206D01*
X114289955Y-90446452D01*
X114289952Y-90446455D01*
X114203706Y-90561664D01*
X114203702Y-90561671D01*
X114153408Y-90696517D01*
X114147053Y-90755634D01*
X114147001Y-90756123D01*
X114147000Y-90756135D01*
X114147000Y-91653870D01*
X114147001Y-91653876D01*
X114153408Y-91713482D01*
X114175182Y-91771862D01*
X114180246Y-91785439D01*
X114184434Y-91796666D01*
X114189418Y-91866358D01*
X114184434Y-91883331D01*
X114153409Y-91966514D01*
X114153408Y-91966516D01*
X114147299Y-92023345D01*
X114147001Y-92026123D01*
X114147000Y-92026135D01*
X114147000Y-92923870D01*
X114147001Y-92923876D01*
X114153408Y-92983483D01*
X114203702Y-93118328D01*
X114203706Y-93118335D01*
X114289952Y-93233544D01*
X114289955Y-93233547D01*
X114405164Y-93319793D01*
X114405171Y-93319797D01*
X114474175Y-93345534D01*
X114530109Y-93387405D01*
X114554526Y-93452869D01*
X114539674Y-93521142D01*
X114518524Y-93549396D01*
X114478214Y-93589706D01*
X114478210Y-93589711D01*
X114390609Y-93720814D01*
X114390602Y-93720827D01*
X114330264Y-93866498D01*
X114330261Y-93866510D01*
X114299500Y-94021153D01*
X114299500Y-94178846D01*
X114330261Y-94333489D01*
X114330264Y-94333501D01*
X114390602Y-94479172D01*
X114390609Y-94479185D01*
X114478210Y-94610288D01*
X114478213Y-94610292D01*
X114589707Y-94721786D01*
X114589711Y-94721789D01*
X114720814Y-94809390D01*
X114720827Y-94809397D01*
X114864200Y-94868783D01*
X114866503Y-94869737D01*
X115019755Y-94900221D01*
X115021153Y-94900499D01*
X115021156Y-94900500D01*
X115021158Y-94900500D01*
X115178844Y-94900500D01*
X115178845Y-94900499D01*
X115333497Y-94869737D01*
X115333511Y-94869730D01*
X115336550Y-94868810D01*
X115338235Y-94868794D01*
X115339472Y-94868549D01*
X115339518Y-94868783D01*
X115350872Y-94868681D01*
X115364315Y-94863743D01*
X115385110Y-94868374D01*
X115406417Y-94868183D01*
X115419834Y-94876107D01*
X115432514Y-94878931D01*
X115450380Y-94894147D01*
X115460664Y-94900221D01*
X115467956Y-94907586D01*
X115469528Y-94910185D01*
X115571788Y-95012445D01*
X115572092Y-95012752D01*
X115588580Y-95043305D01*
X115605146Y-95073642D01*
X115605123Y-95073958D01*
X115605275Y-95074239D01*
X115602630Y-95108823D01*
X115600162Y-95143334D01*
X115599967Y-95143636D01*
X115599947Y-95143905D01*
X115598935Y-95145242D01*
X115571661Y-95187681D01*
X115469531Y-95289810D01*
X115469530Y-95289811D01*
X115381522Y-95435393D01*
X115330913Y-95597807D01*
X115324500Y-95668386D01*
X115324500Y-96181613D01*
X115330913Y-96252192D01*
X115330913Y-96252194D01*
X115330914Y-96252196D01*
X115381522Y-96414606D01*
X115469528Y-96560185D01*
X115469529Y-96560186D01*
X115473409Y-96566604D01*
X115471859Y-96567540D01*
X115476991Y-96580430D01*
X115489677Y-96600169D01*
X115492403Y-96619132D01*
X115494160Y-96623543D01*
X115494700Y-96635104D01*
X115494700Y-96683145D01*
X115476238Y-96748242D01*
X115388001Y-96891294D01*
X115387996Y-96891305D01*
X115334651Y-97052290D01*
X115324500Y-97151647D01*
X115324500Y-97698337D01*
X115324501Y-97698355D01*
X115334650Y-97797707D01*
X115334651Y-97797710D01*
X115387996Y-97958694D01*
X115388001Y-97958705D01*
X115477029Y-98103040D01*
X115477032Y-98103044D01*
X115596955Y-98222967D01*
X115596959Y-98222970D01*
X115741294Y-98311998D01*
X115741297Y-98311999D01*
X115741303Y-98312003D01*
X115902292Y-98365349D01*
X116001655Y-98375500D01*
X116598344Y-98375499D01*
X116598352Y-98375498D01*
X116598355Y-98375498D01*
X116664737Y-98368717D01*
X116697708Y-98365349D01*
X116858697Y-98312003D01*
X117003044Y-98222968D01*
X117122968Y-98103044D01*
X117212003Y-97958697D01*
X117265349Y-97797708D01*
X117275500Y-97698345D01*
X117275499Y-97151656D01*
X117265349Y-97052292D01*
X117237546Y-96968386D01*
X119724500Y-96968386D01*
X119724500Y-97631613D01*
X119730913Y-97702192D01*
X119730913Y-97702194D01*
X119730914Y-97702196D01*
X119781522Y-97864606D01*
X119838400Y-97958694D01*
X119869530Y-98010188D01*
X119989811Y-98130469D01*
X119989813Y-98130470D01*
X119989815Y-98130472D01*
X120135394Y-98218478D01*
X120297804Y-98269086D01*
X120368384Y-98275500D01*
X120368387Y-98275500D01*
X120881613Y-98275500D01*
X120881616Y-98275500D01*
X120952196Y-98269086D01*
X121114606Y-98218478D01*
X121114616Y-98218471D01*
X121119169Y-98216424D01*
X121170060Y-98205500D01*
X121629940Y-98205500D01*
X121680831Y-98216424D01*
X121685386Y-98218473D01*
X121685394Y-98218478D01*
X121847804Y-98269086D01*
X121918384Y-98275500D01*
X121918387Y-98275500D01*
X122431613Y-98275500D01*
X122431616Y-98275500D01*
X122502196Y-98269086D01*
X122664606Y-98218478D01*
X122810185Y-98130472D01*
X122837617Y-98103040D01*
X122912319Y-98028339D01*
X122973642Y-97994854D01*
X123043334Y-97999838D01*
X123087681Y-98028339D01*
X123189811Y-98130469D01*
X123189813Y-98130470D01*
X123189815Y-98130472D01*
X123335394Y-98218478D01*
X123497804Y-98269086D01*
X123568384Y-98275500D01*
X123568387Y-98275500D01*
X124081613Y-98275500D01*
X124081616Y-98275500D01*
X124152196Y-98269086D01*
X124314606Y-98218478D01*
X124314616Y-98218471D01*
X124319169Y-98216424D01*
X124370060Y-98205500D01*
X125239254Y-98205500D01*
X125306293Y-98225185D01*
X125326935Y-98241819D01*
X125963181Y-98878065D01*
X125996666Y-98939388D01*
X125999500Y-98965746D01*
X125999500Y-99697870D01*
X125999501Y-99697876D01*
X126005908Y-99757483D01*
X126056202Y-99892328D01*
X126056206Y-99892335D01*
X126142452Y-100007544D01*
X126142455Y-100007547D01*
X126257664Y-100093793D01*
X126257671Y-100093797D01*
X126392517Y-100144091D01*
X126392516Y-100144091D01*
X126399444Y-100144835D01*
X126452127Y-100150500D01*
X128147872Y-100150499D01*
X128207483Y-100144091D01*
X128342331Y-100093796D01*
X128457546Y-100007546D01*
X128543796Y-99892331D01*
X128594091Y-99757483D01*
X128600500Y-99697873D01*
X128600499Y-98492288D01*
X128601761Y-98474642D01*
X128605500Y-98448638D01*
X128605500Y-97551362D01*
X128602603Y-97497322D01*
X128599769Y-97470964D01*
X128591114Y-97417552D01*
X128540832Y-97282743D01*
X128507347Y-97221420D01*
X128421123Y-97106239D01*
X128421118Y-97106234D01*
X128421113Y-97106228D01*
X128277065Y-96962180D01*
X128243580Y-96900857D01*
X128248564Y-96831165D01*
X128290436Y-96775232D01*
X128355900Y-96750815D01*
X128364746Y-96750499D01*
X128947871Y-96750499D01*
X128947872Y-96750499D01*
X129007483Y-96744091D01*
X129069546Y-96720943D01*
X133799500Y-96720943D01*
X133799500Y-96879057D01*
X133835832Y-97014648D01*
X133840423Y-97031783D01*
X133840426Y-97031790D01*
X133919475Y-97168709D01*
X133919479Y-97168714D01*
X133919480Y-97168716D01*
X134031284Y-97280520D01*
X134031286Y-97280521D01*
X134031290Y-97280524D01*
X134167012Y-97358882D01*
X134168216Y-97359577D01*
X134320943Y-97400500D01*
X134320945Y-97400500D01*
X134479055Y-97400500D01*
X134479057Y-97400500D01*
X134631784Y-97359577D01*
X134768716Y-97280520D01*
X134880520Y-97168716D01*
X134959577Y-97031784D01*
X135000500Y-96879057D01*
X135000500Y-96720943D01*
X134959577Y-96568216D01*
X134916051Y-96492826D01*
X134880524Y-96431290D01*
X134880518Y-96431282D01*
X134768717Y-96319481D01*
X134768709Y-96319475D01*
X134631790Y-96240426D01*
X134631786Y-96240424D01*
X134631784Y-96240423D01*
X134479057Y-96199500D01*
X134320943Y-96199500D01*
X134168216Y-96240423D01*
X134168209Y-96240426D01*
X134031290Y-96319475D01*
X134031282Y-96319481D01*
X133919481Y-96431282D01*
X133919475Y-96431290D01*
X133840426Y-96568209D01*
X133840423Y-96568216D01*
X133799500Y-96720943D01*
X129069546Y-96720943D01*
X129142331Y-96693796D01*
X129257546Y-96607546D01*
X129343796Y-96492331D01*
X129394091Y-96357483D01*
X129400500Y-96297873D01*
X129400499Y-95283419D01*
X129405500Y-95248638D01*
X129405500Y-95151362D01*
X129402603Y-95097322D01*
X129400499Y-95077754D01*
X129400499Y-95002128D01*
X129394091Y-94942517D01*
X129382033Y-94910189D01*
X129343797Y-94807671D01*
X129343793Y-94807664D01*
X129279504Y-94721786D01*
X129257546Y-94692454D01*
X129155188Y-94615828D01*
X129113318Y-94559896D01*
X129105500Y-94516563D01*
X129105500Y-92929500D01*
X129125185Y-92862461D01*
X129177989Y-92816706D01*
X129229500Y-92805500D01*
X130797974Y-92805500D01*
X130863070Y-92823961D01*
X130880659Y-92834810D01*
X130880660Y-92834810D01*
X130880666Y-92834814D01*
X131047203Y-92889999D01*
X131149991Y-92900500D01*
X133450008Y-92900499D01*
X133552797Y-92889999D01*
X133719334Y-92834814D01*
X133736930Y-92823961D01*
X133802026Y-92805500D01*
X134197974Y-92805500D01*
X134263070Y-92823961D01*
X134280659Y-92834810D01*
X134280660Y-92834810D01*
X134280666Y-92834814D01*
X134447203Y-92889999D01*
X134549991Y-92900500D01*
X136850008Y-92900499D01*
X136952797Y-92889999D01*
X137119334Y-92834814D01*
X137136930Y-92823961D01*
X137202026Y-92805500D01*
X137597974Y-92805500D01*
X137663070Y-92823961D01*
X137680659Y-92834810D01*
X137680660Y-92834810D01*
X137680666Y-92834814D01*
X137847203Y-92889999D01*
X137949991Y-92900500D01*
X140250008Y-92900499D01*
X140352797Y-92889999D01*
X140519334Y-92834814D01*
X140536930Y-92823961D01*
X140602026Y-92805500D01*
X141748640Y-92805500D01*
X141758786Y-92804955D01*
X141802678Y-92802603D01*
X141802686Y-92802602D01*
X141802688Y-92802602D01*
X141802689Y-92802602D01*
X141809682Y-92801849D01*
X141829036Y-92799769D01*
X141829046Y-92799767D01*
X141829049Y-92799767D01*
X141838648Y-92798211D01*
X141882448Y-92791114D01*
X142017257Y-92740832D01*
X142078580Y-92707347D01*
X142193761Y-92621123D01*
X142198505Y-92616378D01*
X142221095Y-92598514D01*
X142303044Y-92547968D01*
X142422968Y-92428044D01*
X142512003Y-92283697D01*
X142565349Y-92122708D01*
X142575500Y-92023345D01*
X142575499Y-91476656D01*
X142565349Y-91377292D01*
X142512003Y-91216303D01*
X142512002Y-91216302D01*
X142511794Y-91215673D01*
X142505500Y-91176669D01*
X142505500Y-90551359D01*
X142504683Y-90536139D01*
X142502603Y-90497322D01*
X142501961Y-90491355D01*
X142499770Y-90470977D01*
X142499767Y-90470950D01*
X142493236Y-90430647D01*
X142491114Y-90417552D01*
X142440832Y-90282743D01*
X142407347Y-90221420D01*
X142321123Y-90106239D01*
X142321118Y-90106234D01*
X142321113Y-90106228D01*
X142093776Y-89878892D01*
X142093761Y-89878877D01*
X142093737Y-89878855D01*
X142053519Y-89842728D01*
X142053507Y-89842718D01*
X142032856Y-89826076D01*
X141988974Y-89794433D01*
X141858100Y-89734663D01*
X141791055Y-89714976D01*
X141743582Y-89708150D01*
X141648638Y-89694500D01*
X141648636Y-89694500D01*
X138660746Y-89694500D01*
X138593707Y-89674815D01*
X138573065Y-89658181D01*
X137741819Y-88826935D01*
X137708334Y-88765612D01*
X137705500Y-88739254D01*
X137705500Y-87051359D01*
X137702602Y-86997311D01*
X137702602Y-86997310D01*
X137699770Y-86970977D01*
X137699767Y-86970950D01*
X137691114Y-86917554D01*
X137691114Y-86917552D01*
X137640833Y-86782747D01*
X137640832Y-86782743D01*
X137607347Y-86721420D01*
X137521123Y-86606239D01*
X137521118Y-86606234D01*
X137521113Y-86606228D01*
X136793776Y-85878892D01*
X136793761Y-85878877D01*
X136793737Y-85878855D01*
X136753519Y-85842728D01*
X136753507Y-85842718D01*
X136753179Y-85842454D01*
X136732858Y-85826078D01*
X136732856Y-85826076D01*
X136688974Y-85794433D01*
X136558100Y-85734663D01*
X136491055Y-85714976D01*
X136443582Y-85708150D01*
X136348638Y-85694500D01*
X126924000Y-85694500D01*
X126923995Y-85694500D01*
X126884089Y-85698790D01*
X126870837Y-85699500D01*
X126672130Y-85699500D01*
X126672123Y-85699501D01*
X126612516Y-85705908D01*
X126477671Y-85756202D01*
X126477664Y-85756206D01*
X126362455Y-85842452D01*
X126362452Y-85842455D01*
X126276206Y-85957664D01*
X126276202Y-85957671D01*
X126225908Y-86092517D01*
X126219501Y-86152116D01*
X126219501Y-86152123D01*
X126219500Y-86152135D01*
X126219500Y-91197870D01*
X126219501Y-91197876D01*
X126225908Y-91257483D01*
X126276202Y-91392328D01*
X126276206Y-91392335D01*
X126362452Y-91507544D01*
X126362455Y-91507547D01*
X126477664Y-91593793D01*
X126477671Y-91593797D01*
X126542570Y-91618002D01*
X126612517Y-91644091D01*
X126612518Y-91644091D01*
X126613861Y-91644592D01*
X126658209Y-91673093D01*
X127458181Y-92473065D01*
X127491666Y-92534388D01*
X127494500Y-92560746D01*
X127494500Y-93139254D01*
X127474815Y-93206293D01*
X127458181Y-93226935D01*
X127226935Y-93458181D01*
X127165612Y-93491666D01*
X127139254Y-93494500D01*
X124151360Y-93494500D01*
X124097311Y-93497397D01*
X124097310Y-93497397D01*
X124070977Y-93500229D01*
X124070950Y-93500232D01*
X124017554Y-93508885D01*
X124017552Y-93508885D01*
X123882747Y-93559166D01*
X123821422Y-93592651D01*
X123706240Y-93678876D01*
X123706228Y-93678886D01*
X123078892Y-94306223D01*
X123078855Y-94306262D01*
X123042728Y-94346480D01*
X123042718Y-94346492D01*
X123026076Y-94367143D01*
X122994433Y-94411025D01*
X122934661Y-94541904D01*
X122916120Y-94605045D01*
X122878344Y-94663822D01*
X122814788Y-94692845D01*
X122758142Y-94687813D01*
X122656694Y-94654197D01*
X122597709Y-94634651D01*
X122498346Y-94624500D01*
X121951662Y-94624500D01*
X121951644Y-94624501D01*
X121852292Y-94634650D01*
X121852289Y-94634651D01*
X121691305Y-94687996D01*
X121691294Y-94688001D01*
X121546959Y-94777029D01*
X121546955Y-94777032D01*
X121427032Y-94896955D01*
X121427029Y-94896959D01*
X121337998Y-95041299D01*
X121294799Y-95171664D01*
X121264774Y-95220340D01*
X120065630Y-96419484D01*
X120042100Y-96437919D01*
X119989816Y-96469526D01*
X119989811Y-96469530D01*
X119869530Y-96589811D01*
X119781522Y-96735393D01*
X119730913Y-96897807D01*
X119724500Y-96968386D01*
X117237546Y-96968386D01*
X117212003Y-96891303D01*
X117211999Y-96891297D01*
X117211998Y-96891294D01*
X117123762Y-96748242D01*
X117119066Y-96731684D01*
X117110323Y-96718080D01*
X117105300Y-96683145D01*
X117105300Y-96635104D01*
X117124985Y-96568065D01*
X117129826Y-96561252D01*
X117130469Y-96560187D01*
X117130472Y-96560185D01*
X117218478Y-96414606D01*
X117269086Y-96252196D01*
X117275500Y-96181616D01*
X117275500Y-95668384D01*
X117269086Y-95597804D01*
X117218478Y-95435394D01*
X117130472Y-95289815D01*
X117130470Y-95289813D01*
X117130469Y-95289811D01*
X117028339Y-95187681D01*
X116994854Y-95126358D01*
X116999838Y-95056666D01*
X117028339Y-95012319D01*
X117130468Y-94910189D01*
X117130469Y-94910188D01*
X117130472Y-94910185D01*
X117218478Y-94764606D01*
X117269086Y-94602196D01*
X117275500Y-94531616D01*
X117275500Y-94489727D01*
X117295185Y-94422688D01*
X117311815Y-94402050D01*
X117513345Y-94200520D01*
X117513349Y-94200518D01*
X117625518Y-94088349D01*
X117713648Y-93956453D01*
X117764648Y-93833327D01*
X117774353Y-93809898D01*
X117805300Y-93654316D01*
X117805300Y-93495685D01*
X117805300Y-91785439D01*
X117805301Y-91774488D01*
X117815556Y-91739575D01*
X117824986Y-91707460D01*
X117824990Y-91707456D01*
X117824992Y-91707450D01*
X117855761Y-91680793D01*
X117877790Y-91661705D01*
X117877795Y-91661703D01*
X117877800Y-91661700D01*
X117877838Y-91661694D01*
X117929301Y-91650499D01*
X120927871Y-91650499D01*
X120927872Y-91650499D01*
X120987483Y-91644091D01*
X121122331Y-91593796D01*
X121237546Y-91507546D01*
X121323796Y-91392331D01*
X121374091Y-91257483D01*
X121380500Y-91197873D01*
X121380499Y-86152128D01*
X121374091Y-86092517D01*
X121354225Y-86039254D01*
X121323797Y-85957671D01*
X121323793Y-85957664D01*
X121237547Y-85842455D01*
X121237544Y-85842452D01*
X121122335Y-85756206D01*
X121122328Y-85756202D01*
X120987482Y-85705908D01*
X120987483Y-85705908D01*
X120927883Y-85699501D01*
X120927881Y-85699500D01*
X120927873Y-85699500D01*
X120927865Y-85699500D01*
X118419646Y-85699500D01*
X118402002Y-85698238D01*
X118376004Y-85694500D01*
X118376000Y-85694500D01*
X117751362Y-85694500D01*
X117751361Y-85694500D01*
X117735218Y-85695365D01*
X117697322Y-85697397D01*
X117677753Y-85699500D01*
X117657128Y-85699501D01*
X117597517Y-85705909D01*
X117466214Y-85754881D01*
X117459540Y-85756560D01*
X117431215Y-85755447D01*
X117402941Y-85757470D01*
X117396760Y-85754095D01*
X117389724Y-85753819D01*
X117366494Y-85737567D01*
X117341619Y-85723984D01*
X117338244Y-85717803D01*
X117332474Y-85713767D01*
X117321719Y-85687541D01*
X117308134Y-85662661D01*
X117306932Y-85651479D01*
X117305965Y-85649121D01*
X117306415Y-85646673D01*
X117305301Y-85636304D01*
X117305301Y-85520682D01*
X117274354Y-85365108D01*
X117274353Y-85365107D01*
X117274353Y-85365103D01*
X117274351Y-85365098D01*
X117213650Y-85218551D01*
X117213649Y-85218549D01*
X117125518Y-85086652D01*
X117108195Y-85069329D01*
X117054848Y-85015982D01*
X117054831Y-85015963D01*
X116938352Y-84899484D01*
X116938348Y-84899481D01*
X116806459Y-84811355D01*
X116806446Y-84811348D01*
X116659901Y-84750648D01*
X116659891Y-84750645D01*
X116504317Y-84719699D01*
X116504315Y-84719699D01*
X116345685Y-84719699D01*
X116339571Y-84719699D01*
X116339551Y-84719700D01*
X116126323Y-84719700D01*
X116061226Y-84701238D01*
X116011770Y-84670733D01*
X115958701Y-84637999D01*
X115958698Y-84637997D01*
X115958697Y-84637997D01*
X115958694Y-84637996D01*
X115797709Y-84584651D01*
X115698346Y-84574500D01*
X115101662Y-84574500D01*
X115101644Y-84574501D01*
X115002292Y-84584650D01*
X115002289Y-84584651D01*
X114841305Y-84637996D01*
X114841294Y-84638001D01*
X114696959Y-84727029D01*
X114696955Y-84727032D01*
X114577032Y-84846955D01*
X114577029Y-84846959D01*
X114488001Y-84991294D01*
X114487996Y-84991305D01*
X114434651Y-85152290D01*
X114424500Y-85251647D01*
X114424500Y-85798337D01*
X114424501Y-85798355D01*
X114434650Y-85897707D01*
X114434651Y-85897710D01*
X114487996Y-86058694D01*
X114488001Y-86058705D01*
X114577029Y-86203040D01*
X114577032Y-86203044D01*
X114586307Y-86212319D01*
X114619792Y-86273642D01*
X114614808Y-86343334D01*
X114586307Y-86387681D01*
X114577032Y-86396955D01*
X114577029Y-86396959D01*
X114488001Y-86541294D01*
X114487996Y-86541305D01*
X114434651Y-86702290D01*
X114424500Y-86801647D01*
X114424500Y-87348337D01*
X114424501Y-87348355D01*
X114434650Y-87447707D01*
X114434651Y-87447710D01*
X114488206Y-87609327D01*
X114488656Y-87612119D01*
X114489477Y-87613396D01*
X114494500Y-87648331D01*
X114494500Y-87700790D01*
X114474815Y-87767829D01*
X114422011Y-87813584D01*
X114413840Y-87816969D01*
X114405170Y-87820203D01*
X114405165Y-87820205D01*
X114289955Y-87906452D01*
X114289952Y-87906455D01*
X114203706Y-88021664D01*
X114203702Y-88021671D01*
X114153408Y-88156517D01*
X114147001Y-88216116D01*
X114147000Y-88216135D01*
X111657999Y-88216135D01*
X111657999Y-88216128D01*
X111651591Y-88156517D01*
X111625531Y-88086647D01*
X111601297Y-88021671D01*
X111601293Y-88021664D01*
X111515047Y-87906455D01*
X111515044Y-87906452D01*
X111399835Y-87820206D01*
X111399828Y-87820202D01*
X111264982Y-87769908D01*
X111264983Y-87769908D01*
X111205383Y-87763501D01*
X111205381Y-87763500D01*
X111205373Y-87763500D01*
X111205364Y-87763500D01*
X109604629Y-87763500D01*
X109604623Y-87763501D01*
X109545016Y-87769908D01*
X109499510Y-87786882D01*
X109456177Y-87794700D01*
X108820680Y-87794700D01*
X108665110Y-87825644D01*
X108665101Y-87825647D01*
X108518553Y-87886348D01*
X108518540Y-87886355D01*
X108386651Y-87974481D01*
X108386647Y-87974484D01*
X108274484Y-88086647D01*
X108274481Y-88086651D01*
X108186355Y-88218540D01*
X108186350Y-88218550D01*
X108172188Y-88252741D01*
X108128347Y-88307144D01*
X108062052Y-88329209D01*
X108022692Y-88324265D01*
X107991059Y-88314976D01*
X107889328Y-88300350D01*
X107848638Y-88294500D01*
X107848636Y-88294500D01*
X105460746Y-88294500D01*
X105393707Y-88274815D01*
X105373065Y-88258181D01*
X103241819Y-86126935D01*
X103208334Y-86065612D01*
X103205500Y-86039254D01*
X103205500Y-84920943D01*
X107699500Y-84920943D01*
X107699500Y-85079057D01*
X107737567Y-85221123D01*
X107740423Y-85231783D01*
X107740426Y-85231790D01*
X107819475Y-85368709D01*
X107819479Y-85368714D01*
X107819480Y-85368716D01*
X107931284Y-85480520D01*
X107931286Y-85480521D01*
X107931290Y-85480524D01*
X108000847Y-85520682D01*
X108068216Y-85559577D01*
X108220943Y-85600500D01*
X108220945Y-85600500D01*
X108379055Y-85600500D01*
X108379057Y-85600500D01*
X108531784Y-85559577D01*
X108668716Y-85480520D01*
X108780520Y-85368716D01*
X108859577Y-85231784D01*
X108900500Y-85079057D01*
X108900500Y-84920943D01*
X108859577Y-84768216D01*
X108849434Y-84750647D01*
X108780524Y-84631290D01*
X108780518Y-84631282D01*
X108668717Y-84519481D01*
X108668709Y-84519475D01*
X108531790Y-84440426D01*
X108531786Y-84440424D01*
X108531784Y-84440423D01*
X108379057Y-84399500D01*
X108220943Y-84399500D01*
X108068216Y-84440423D01*
X108068209Y-84440426D01*
X107931290Y-84519475D01*
X107931282Y-84519481D01*
X107819481Y-84631282D01*
X107819475Y-84631290D01*
X107740426Y-84768209D01*
X107740423Y-84768216D01*
X107699500Y-84920943D01*
X103205500Y-84920943D01*
X103205500Y-80824010D01*
X103205500Y-80824000D01*
X103201210Y-80784098D01*
X103200514Y-80772753D01*
X103200499Y-80771779D01*
X103200499Y-80652128D01*
X103198346Y-80632106D01*
X103198259Y-80626410D01*
X103206125Y-80598006D01*
X103211361Y-80568993D01*
X103215347Y-80564711D01*
X103216908Y-80559076D01*
X103238883Y-80539432D01*
X103258973Y-80517857D01*
X103264815Y-80516254D01*
X103269001Y-80512513D01*
X103291591Y-80508908D01*
X103322244Y-80500500D01*
X105399461Y-80500500D01*
X105466500Y-80520185D01*
G37*
%TD.AperFunction*%
%TD*%
M02*
