%TF.GenerationSoftware,KiCad,Pcbnew,9.0.4*%
%TF.CreationDate,2025-08-21T12:34:08-03:00*%
%TF.ProjectId,EMI_SS_Supply_Electgpl,454d495f-5353-45f5-9375-70706c795f45,rev?*%
%TF.SameCoordinates,Original*%
%TF.FileFunction,Copper,L3,Inr*%
%TF.FilePolarity,Positive*%
%FSLAX46Y46*%
G04 Gerber Fmt 4.6, Leading zero omitted, Abs format (unit mm)*
G04 Created by KiCad (PCBNEW 9.0.4) date 2025-08-21 12:34:08*
%MOMM*%
%LPD*%
G01*
G04 APERTURE LIST*
%TA.AperFunction,ComponentPad*%
%ADD10R,2.000000X2.000000*%
%TD*%
%TA.AperFunction,ViaPad*%
%ADD11C,3.100000*%
%TD*%
%TA.AperFunction,ViaPad*%
%ADD12C,0.600000*%
%TD*%
G04 APERTURE END LIST*
D10*
%TO.N,GND*%
%TO.C,TP4*%
X141800000Y-99600000D03*
%TD*%
%TO.N,Net-(C12-Pad1)*%
%TO.C,TP3*%
X141800000Y-81700000D03*
%TD*%
%TO.N,Net-(U1-VIN)*%
%TO.C,TP1*%
X101700000Y-81700000D03*
%TD*%
%TO.N,GND*%
%TO.C,TP2*%
X101700000Y-99600000D03*
%TD*%
D11*
%TO.N,*%
X137100000Y-98800000D03*
X106500000Y-82500000D03*
D12*
%TO.N,GND*%
X138075000Y-87741750D03*
X113945000Y-81391750D03*
X121565000Y-99171750D03*
X131725000Y-81391750D03*
X134265000Y-85201750D03*
X121565000Y-92821750D03*
X113800000Y-89400000D03*
X127915000Y-83931750D03*
X103785000Y-97901750D03*
X129185000Y-85201750D03*
X110135000Y-82661750D03*
X124105000Y-86471750D03*
X122835000Y-91551750D03*
X112000000Y-90000000D03*
X112000000Y-88800000D03*
X132995000Y-97901750D03*
X116485000Y-82661750D03*
X113800000Y-91200000D03*
X119025000Y-94091750D03*
X115215000Y-82661750D03*
X113800000Y-90000000D03*
X139345000Y-89011750D03*
X112000000Y-91800000D03*
X125375000Y-91551750D03*
X130455000Y-81391750D03*
X125375000Y-82661750D03*
X131725000Y-82661750D03*
X122835000Y-81391750D03*
X102515000Y-96631750D03*
X112000000Y-89400000D03*
X112900000Y-86400000D03*
X120295000Y-82661750D03*
X113800000Y-87000000D03*
X117755000Y-83931750D03*
X110135000Y-99171750D03*
X111405000Y-97901750D03*
X111405000Y-99171750D03*
X112675000Y-82661750D03*
X101245000Y-95361750D03*
X122835000Y-83931750D03*
X124105000Y-81391750D03*
X112900000Y-93600000D03*
X122835000Y-92821750D03*
X129185000Y-83931750D03*
X121565000Y-85201750D03*
X117755000Y-97901750D03*
X139800000Y-93600000D03*
X124105000Y-90281750D03*
X125375000Y-86471750D03*
X113945000Y-97901750D03*
X121565000Y-94091750D03*
X120295000Y-81391750D03*
X112902500Y-90570000D03*
X132995000Y-85201750D03*
X124105000Y-82661750D03*
X131725000Y-96631750D03*
X120295000Y-94091750D03*
X108865000Y-99171750D03*
X125375000Y-81391750D03*
X138400000Y-93600000D03*
X126645000Y-85201750D03*
X129185000Y-97901750D03*
X113800000Y-88800000D03*
X136400000Y-93600000D03*
X129185000Y-99171750D03*
X131725000Y-99171750D03*
X136805000Y-85201750D03*
X131700000Y-93600000D03*
X122835000Y-86471750D03*
X113800000Y-92400000D03*
X119025000Y-99171750D03*
X107595000Y-86471750D03*
X103785000Y-99171750D03*
X112900000Y-90000000D03*
X131725000Y-83931750D03*
X113800000Y-93000000D03*
X112000000Y-93600000D03*
X124105000Y-91551750D03*
X112900000Y-94800000D03*
X126645000Y-82661750D03*
X122835000Y-89011750D03*
X112902500Y-90570000D03*
X129185000Y-81391750D03*
X112675000Y-97901750D03*
X112000000Y-88800000D03*
X124105000Y-85201750D03*
X141885000Y-95361750D03*
X112675000Y-96631750D03*
X122835000Y-94091750D03*
X130455000Y-85201750D03*
X106325000Y-87741750D03*
X110135000Y-83931750D03*
X119025000Y-81391750D03*
X112000000Y-91200000D03*
X126645000Y-81391750D03*
X112900000Y-89400000D03*
X125375000Y-85201750D03*
X101245000Y-96631750D03*
X113945000Y-96631750D03*
X119025000Y-82661750D03*
X125375000Y-92821750D03*
X113945000Y-99171750D03*
X122835000Y-85201750D03*
X119025000Y-85201750D03*
X107595000Y-99171750D03*
X120295000Y-92821750D03*
X112000000Y-87000000D03*
X112900000Y-94200000D03*
X122835000Y-82661750D03*
X132995000Y-99171750D03*
X130455000Y-97901750D03*
X140615000Y-89011750D03*
X121565000Y-83931750D03*
X117755000Y-85201750D03*
X141885000Y-96631750D03*
X141885000Y-89011750D03*
X102515000Y-95361750D03*
X127915000Y-82661750D03*
X124105000Y-87741750D03*
X103785000Y-95361750D03*
X112900000Y-87000000D03*
X122835000Y-99171750D03*
X105055000Y-86471750D03*
X119025000Y-83931750D03*
X112900000Y-93000000D03*
X130455000Y-83931750D03*
X113800000Y-86400000D03*
X106325000Y-86471750D03*
X130455000Y-99171750D03*
X130455000Y-82661750D03*
X113800000Y-93600000D03*
X141500000Y-86100000D03*
X119025000Y-92821750D03*
X112675000Y-81391750D03*
X115215000Y-81391750D03*
X119025000Y-95361750D03*
X113800000Y-87600000D03*
X117755000Y-82661750D03*
X132995000Y-96631750D03*
X127915000Y-81391750D03*
X125375000Y-87741750D03*
X112900000Y-92400000D03*
X117755000Y-99171750D03*
X112000000Y-92400000D03*
X106325000Y-92821750D03*
X112675000Y-99171750D03*
X132995000Y-83931750D03*
X124105000Y-89011750D03*
X112000000Y-87600000D03*
X106325000Y-94091750D03*
X126645000Y-83931750D03*
X125375000Y-99171750D03*
X125375000Y-90281750D03*
X124105000Y-92821750D03*
X111405000Y-82661750D03*
X125375000Y-89011750D03*
X110135000Y-97901750D03*
X112900000Y-91200000D03*
X105055000Y-95361750D03*
X140100000Y-86100000D03*
X120295000Y-95361750D03*
X124105000Y-99171750D03*
X122835000Y-90281750D03*
X122835000Y-87741750D03*
X131725000Y-97901750D03*
X130455000Y-96631750D03*
X138075000Y-86471750D03*
X112000000Y-94800000D03*
X112000000Y-88200000D03*
X110135000Y-81391750D03*
X113800000Y-94200000D03*
X112000000Y-86400000D03*
X105055000Y-96631750D03*
X105055000Y-99171750D03*
X113800000Y-90600000D03*
X112000000Y-90600000D03*
X116485000Y-81391750D03*
X117755000Y-81391750D03*
X124105000Y-83931750D03*
X121565000Y-82661750D03*
X120295000Y-99171750D03*
X103785000Y-96631750D03*
X112900000Y-87600000D03*
X112900000Y-88200000D03*
X120295000Y-85201750D03*
X112900000Y-88800000D03*
X126645000Y-92821750D03*
X135000000Y-93600000D03*
X111405000Y-81391750D03*
X132900000Y-93600000D03*
X129185000Y-82661750D03*
X106325000Y-99171750D03*
X131725000Y-85201750D03*
X113800000Y-94800000D03*
X113800000Y-88200000D03*
X113800000Y-91800000D03*
X112900000Y-91800000D03*
X112000000Y-94200000D03*
X105055000Y-97901750D03*
X127915000Y-85201750D03*
X113945000Y-82661750D03*
X121565000Y-81391750D03*
X135535000Y-85201750D03*
X120295000Y-83931750D03*
X125375000Y-83931750D03*
X112000000Y-93000000D03*
%TO.N,Net-(U1-BST)*%
X116500000Y-85600000D03*
X108900000Y-88600000D03*
%TO.N,Net-(U1-FB)*%
X115100000Y-94100000D03*
X121400000Y-97300000D03*
%TD*%
%TA.AperFunction,Conductor*%
%TO.N,GND*%
G36*
X105466500Y-80520185D02*
G01*
X105512255Y-80572989D01*
X105522199Y-80642147D01*
X105493174Y-80705703D01*
X105461461Y-80731887D01*
X105358354Y-80791416D01*
X105145111Y-80955042D01*
X105145104Y-80955048D01*
X104955048Y-81145104D01*
X104955042Y-81145111D01*
X104791416Y-81358354D01*
X104657019Y-81591133D01*
X104657011Y-81591149D01*
X104554152Y-81839475D01*
X104484585Y-82099106D01*
X104484582Y-82099119D01*
X104449500Y-82365602D01*
X104449500Y-82634397D01*
X104484582Y-82900880D01*
X104484583Y-82900885D01*
X104484584Y-82900891D01*
X104484585Y-82900893D01*
X104554152Y-83160524D01*
X104657011Y-83408850D01*
X104657019Y-83408866D01*
X104737830Y-83548832D01*
X104791413Y-83641641D01*
X104791415Y-83641644D01*
X104791416Y-83641645D01*
X104955042Y-83854888D01*
X104955048Y-83854895D01*
X105145104Y-84044951D01*
X105145110Y-84044956D01*
X105358359Y-84208587D01*
X105507968Y-84294964D01*
X105591133Y-84342980D01*
X105591149Y-84342988D01*
X105746008Y-84407132D01*
X105839474Y-84445847D01*
X106099109Y-84515416D01*
X106287319Y-84540193D01*
X106365602Y-84550500D01*
X106365603Y-84550500D01*
X106634398Y-84550500D01*
X106694905Y-84542534D01*
X106900891Y-84515416D01*
X107160526Y-84445847D01*
X107347457Y-84368417D01*
X107408850Y-84342988D01*
X107408853Y-84342986D01*
X107408859Y-84342984D01*
X107641641Y-84208587D01*
X107854890Y-84044956D01*
X108044956Y-83854890D01*
X108208587Y-83641641D01*
X108342984Y-83408859D01*
X108445847Y-83160526D01*
X108515416Y-82900891D01*
X108550500Y-82634397D01*
X108550500Y-82365603D01*
X108515416Y-82099109D01*
X108445847Y-81839474D01*
X108407132Y-81746008D01*
X108342988Y-81591149D01*
X108342980Y-81591133D01*
X108294964Y-81507968D01*
X108208587Y-81358359D01*
X108044956Y-81145110D01*
X108044951Y-81145104D01*
X107854895Y-80955048D01*
X107854888Y-80955042D01*
X107641645Y-80791416D01*
X107641644Y-80791415D01*
X107641641Y-80791413D01*
X107538538Y-80731886D01*
X107490323Y-80681320D01*
X107477101Y-80612712D01*
X107503069Y-80547848D01*
X107559983Y-80507320D01*
X107600539Y-80500500D01*
X140177756Y-80500500D01*
X140244795Y-80520185D01*
X140290550Y-80572989D01*
X140301045Y-80637752D01*
X140299500Y-80652127D01*
X140299500Y-80652133D01*
X140299500Y-80652134D01*
X140299500Y-82747870D01*
X140299501Y-82747876D01*
X140305908Y-82807483D01*
X140356202Y-82942328D01*
X140356206Y-82942335D01*
X140442452Y-83057544D01*
X140442455Y-83057547D01*
X140557664Y-83143793D01*
X140557671Y-83143797D01*
X140692517Y-83194091D01*
X140692516Y-83194091D01*
X140699444Y-83194835D01*
X140752127Y-83200500D01*
X142847872Y-83200499D01*
X142862242Y-83198954D01*
X142931001Y-83211357D01*
X142982140Y-83258966D01*
X142999500Y-83322243D01*
X142999500Y-100675500D01*
X142979815Y-100742539D01*
X142927011Y-100788294D01*
X142875500Y-100799500D01*
X138200539Y-100799500D01*
X138133500Y-100779815D01*
X138087745Y-100727011D01*
X138077801Y-100657853D01*
X138106826Y-100594297D01*
X138138539Y-100568113D01*
X138241641Y-100508587D01*
X138454890Y-100344956D01*
X138644956Y-100154890D01*
X138808587Y-99941641D01*
X138942984Y-99708859D01*
X139045847Y-99460526D01*
X139115416Y-99200891D01*
X139150500Y-98934397D01*
X139150500Y-98665603D01*
X139115416Y-98399109D01*
X139045847Y-98139474D01*
X138991966Y-98009394D01*
X138942988Y-97891149D01*
X138942980Y-97891133D01*
X138894964Y-97807968D01*
X138808587Y-97658359D01*
X138712781Y-97533501D01*
X138644957Y-97445111D01*
X138644951Y-97445104D01*
X138454895Y-97255048D01*
X138454888Y-97255042D01*
X138241645Y-97091416D01*
X138241644Y-97091415D01*
X138241641Y-97091413D01*
X138148832Y-97037830D01*
X138008866Y-96957019D01*
X138008850Y-96957011D01*
X137760524Y-96854152D01*
X137630708Y-96819368D01*
X137500891Y-96784584D01*
X137500885Y-96784583D01*
X137500880Y-96784582D01*
X137234398Y-96749500D01*
X137234397Y-96749500D01*
X136965603Y-96749500D01*
X136965602Y-96749500D01*
X136699119Y-96784582D01*
X136699112Y-96784583D01*
X136699109Y-96784584D01*
X136679990Y-96789707D01*
X136439475Y-96854152D01*
X136191149Y-96957011D01*
X136191133Y-96957019D01*
X135958354Y-97091416D01*
X135745111Y-97255042D01*
X135745104Y-97255048D01*
X135555048Y-97445104D01*
X135555042Y-97445111D01*
X135391416Y-97658354D01*
X135257019Y-97891133D01*
X135257011Y-97891149D01*
X135154152Y-98139475D01*
X135084585Y-98399106D01*
X135084582Y-98399119D01*
X135049500Y-98665602D01*
X135049500Y-98934397D01*
X135084582Y-99200880D01*
X135084583Y-99200885D01*
X135084584Y-99200891D01*
X135084585Y-99200893D01*
X135154152Y-99460524D01*
X135257011Y-99708850D01*
X135257019Y-99708866D01*
X135337830Y-99848832D01*
X135391413Y-99941641D01*
X135391415Y-99941644D01*
X135391416Y-99941645D01*
X135555042Y-100154888D01*
X135555048Y-100154895D01*
X135745104Y-100344951D01*
X135745110Y-100344956D01*
X135958359Y-100508587D01*
X136061461Y-100568113D01*
X136109677Y-100618680D01*
X136122899Y-100687288D01*
X136096931Y-100752152D01*
X136040017Y-100792680D01*
X135999461Y-100799500D01*
X100624500Y-100799500D01*
X100557461Y-100779815D01*
X100511706Y-100727011D01*
X100500500Y-100675500D01*
X100500500Y-97221153D01*
X120599500Y-97221153D01*
X120599500Y-97378846D01*
X120630261Y-97533489D01*
X120630264Y-97533501D01*
X120690602Y-97679172D01*
X120690609Y-97679185D01*
X120778210Y-97810288D01*
X120778213Y-97810292D01*
X120889707Y-97921786D01*
X120889711Y-97921789D01*
X121020814Y-98009390D01*
X121020827Y-98009397D01*
X121166498Y-98069735D01*
X121166503Y-98069737D01*
X121321153Y-98100499D01*
X121321156Y-98100500D01*
X121321158Y-98100500D01*
X121478844Y-98100500D01*
X121478845Y-98100499D01*
X121633497Y-98069737D01*
X121779179Y-98009394D01*
X121910289Y-97921789D01*
X122021789Y-97810289D01*
X122109394Y-97679179D01*
X122169737Y-97533497D01*
X122200500Y-97378842D01*
X122200500Y-97221158D01*
X122200500Y-97221155D01*
X122200499Y-97221153D01*
X122169737Y-97066503D01*
X122124388Y-96957019D01*
X122109397Y-96920827D01*
X122109390Y-96920814D01*
X122021789Y-96789711D01*
X122021786Y-96789707D01*
X121910292Y-96678213D01*
X121910288Y-96678210D01*
X121779185Y-96590609D01*
X121779172Y-96590602D01*
X121633501Y-96530264D01*
X121633489Y-96530261D01*
X121478845Y-96499500D01*
X121478842Y-96499500D01*
X121321158Y-96499500D01*
X121321155Y-96499500D01*
X121166510Y-96530261D01*
X121166498Y-96530264D01*
X121020827Y-96590602D01*
X121020814Y-96590609D01*
X120889711Y-96678210D01*
X120889707Y-96678213D01*
X120778213Y-96789707D01*
X120778210Y-96789711D01*
X120690609Y-96920814D01*
X120690602Y-96920827D01*
X120630264Y-97066498D01*
X120630261Y-97066510D01*
X120599500Y-97221153D01*
X100500500Y-97221153D01*
X100500500Y-94021153D01*
X114299500Y-94021153D01*
X114299500Y-94178846D01*
X114330261Y-94333489D01*
X114330264Y-94333501D01*
X114390602Y-94479172D01*
X114390609Y-94479185D01*
X114478210Y-94610288D01*
X114478213Y-94610292D01*
X114589707Y-94721786D01*
X114589711Y-94721789D01*
X114720814Y-94809390D01*
X114720827Y-94809397D01*
X114866498Y-94869735D01*
X114866503Y-94869737D01*
X115021153Y-94900499D01*
X115021156Y-94900500D01*
X115021158Y-94900500D01*
X115178844Y-94900500D01*
X115178845Y-94900499D01*
X115333497Y-94869737D01*
X115479179Y-94809394D01*
X115610289Y-94721789D01*
X115721789Y-94610289D01*
X115809394Y-94479179D01*
X115869737Y-94333497D01*
X115900500Y-94178842D01*
X115900500Y-94021158D01*
X115900500Y-94021155D01*
X115900499Y-94021153D01*
X115869738Y-93866510D01*
X115869737Y-93866503D01*
X115869735Y-93866498D01*
X115809397Y-93720827D01*
X115809390Y-93720814D01*
X115721789Y-93589711D01*
X115721786Y-93589707D01*
X115610292Y-93478213D01*
X115610288Y-93478210D01*
X115479185Y-93390609D01*
X115479172Y-93390602D01*
X115333501Y-93330264D01*
X115333489Y-93330261D01*
X115178845Y-93299500D01*
X115178842Y-93299500D01*
X115021158Y-93299500D01*
X115021155Y-93299500D01*
X114866510Y-93330261D01*
X114866498Y-93330264D01*
X114720827Y-93390602D01*
X114720814Y-93390609D01*
X114589711Y-93478210D01*
X114589707Y-93478213D01*
X114478213Y-93589707D01*
X114478210Y-93589711D01*
X114390609Y-93720814D01*
X114390602Y-93720827D01*
X114330264Y-93866498D01*
X114330261Y-93866510D01*
X114299500Y-94021153D01*
X100500500Y-94021153D01*
X100500500Y-88521153D01*
X108099500Y-88521153D01*
X108099500Y-88678846D01*
X108130261Y-88833489D01*
X108130264Y-88833501D01*
X108190602Y-88979172D01*
X108190609Y-88979185D01*
X108278210Y-89110288D01*
X108278213Y-89110292D01*
X108389707Y-89221786D01*
X108389711Y-89221789D01*
X108520814Y-89309390D01*
X108520827Y-89309397D01*
X108666498Y-89369735D01*
X108666503Y-89369737D01*
X108821153Y-89400499D01*
X108821156Y-89400500D01*
X108821158Y-89400500D01*
X108978844Y-89400500D01*
X108978845Y-89400499D01*
X109133497Y-89369737D01*
X109279179Y-89309394D01*
X109410289Y-89221789D01*
X109521789Y-89110289D01*
X109609394Y-88979179D01*
X109669737Y-88833497D01*
X109700500Y-88678842D01*
X109700500Y-88521158D01*
X109700500Y-88521155D01*
X109700499Y-88521153D01*
X109669738Y-88366510D01*
X109669737Y-88366503D01*
X109669735Y-88366498D01*
X109609397Y-88220827D01*
X109609390Y-88220814D01*
X109521789Y-88089711D01*
X109521786Y-88089707D01*
X109410292Y-87978213D01*
X109410288Y-87978210D01*
X109279185Y-87890609D01*
X109279172Y-87890602D01*
X109133501Y-87830264D01*
X109133489Y-87830261D01*
X108978845Y-87799500D01*
X108978842Y-87799500D01*
X108821158Y-87799500D01*
X108821155Y-87799500D01*
X108666510Y-87830261D01*
X108666498Y-87830264D01*
X108520827Y-87890602D01*
X108520814Y-87890609D01*
X108389711Y-87978210D01*
X108389707Y-87978213D01*
X108278213Y-88089707D01*
X108278210Y-88089711D01*
X108190609Y-88220814D01*
X108190602Y-88220827D01*
X108130264Y-88366498D01*
X108130261Y-88366510D01*
X108099500Y-88521153D01*
X100500500Y-88521153D01*
X100500500Y-86700000D01*
X115000000Y-86700000D01*
X115000000Y-89000000D01*
X116548638Y-89000000D01*
X116615677Y-89019685D01*
X116636319Y-89036319D01*
X117663681Y-90063681D01*
X117697166Y-90125004D01*
X117700000Y-90151362D01*
X117700000Y-91100000D01*
X117800000Y-91200000D01*
X120900000Y-91200000D01*
X120900000Y-86200000D01*
X117700000Y-86200000D01*
X117699999Y-86200000D01*
X117236319Y-86663681D01*
X117174996Y-86697166D01*
X117148638Y-86700000D01*
X115000000Y-86700000D01*
X100500500Y-86700000D01*
X100500500Y-85521153D01*
X115699500Y-85521153D01*
X115699500Y-85678846D01*
X115730261Y-85833489D01*
X115730264Y-85833501D01*
X115790602Y-85979172D01*
X115790609Y-85979185D01*
X115878210Y-86110288D01*
X115878213Y-86110292D01*
X115989707Y-86221786D01*
X115989711Y-86221789D01*
X116120814Y-86309390D01*
X116120827Y-86309397D01*
X116266498Y-86369735D01*
X116266503Y-86369737D01*
X116421153Y-86400499D01*
X116421156Y-86400500D01*
X116421158Y-86400500D01*
X116578844Y-86400500D01*
X116578845Y-86400499D01*
X116733497Y-86369737D01*
X116879179Y-86309394D01*
X117010289Y-86221789D01*
X117121789Y-86110289D01*
X117209394Y-85979179D01*
X117269737Y-85833497D01*
X117300500Y-85678842D01*
X117300500Y-85521158D01*
X117300500Y-85521155D01*
X117300499Y-85521153D01*
X117269738Y-85366510D01*
X117269737Y-85366503D01*
X117269735Y-85366498D01*
X117209397Y-85220827D01*
X117209390Y-85220814D01*
X117121789Y-85089711D01*
X117121786Y-85089707D01*
X117010292Y-84978213D01*
X117010288Y-84978210D01*
X116879185Y-84890609D01*
X116879172Y-84890602D01*
X116733501Y-84830264D01*
X116733489Y-84830261D01*
X116578845Y-84799500D01*
X116578842Y-84799500D01*
X116421158Y-84799500D01*
X116421155Y-84799500D01*
X116266510Y-84830261D01*
X116266498Y-84830264D01*
X116120827Y-84890602D01*
X116120814Y-84890609D01*
X115989711Y-84978210D01*
X115989707Y-84978213D01*
X115878213Y-85089707D01*
X115878210Y-85089711D01*
X115790609Y-85220814D01*
X115790602Y-85220827D01*
X115730264Y-85366498D01*
X115730261Y-85366510D01*
X115699500Y-85521153D01*
X100500500Y-85521153D01*
X100500500Y-83322243D01*
X100520185Y-83255204D01*
X100572989Y-83209449D01*
X100637756Y-83198954D01*
X100652127Y-83200500D01*
X102747872Y-83200499D01*
X102807483Y-83194091D01*
X102942331Y-83143796D01*
X103057546Y-83057546D01*
X103143796Y-82942331D01*
X103194091Y-82807483D01*
X103200500Y-82747873D01*
X103200499Y-80652128D01*
X103198954Y-80637752D01*
X103211361Y-80568993D01*
X103258973Y-80517857D01*
X103322244Y-80500500D01*
X105399461Y-80500500D01*
X105466500Y-80520185D01*
G37*
%TD.AperFunction*%
%TD*%
M02*
