%TF.GenerationSoftware,KiCad,Pcbnew,9.0.4*%
%TF.CreationDate,2025-08-21T12:34:08-03:00*%
%TF.ProjectId,EMI_SS_Supply_Electgpl,454d495f-5353-45f5-9375-70706c795f45,rev?*%
%TF.SameCoordinates,Original*%
%TF.FileFunction,Soldermask,Top*%
%TF.FilePolarity,Negative*%
%FSLAX46Y46*%
G04 Gerber Fmt 4.6, Leading zero omitted, Abs format (unit mm)*
G04 Created by KiCad (PCBNEW 9.0.4) date 2025-08-21 12:34:08*
%MOMM*%
%LPD*%
G01*
G04 APERTURE LIST*
G04 Aperture macros list*
%AMRoundRect*
0 Rectangle with rounded corners*
0 $1 Rounding radius*
0 $2 $3 $4 $5 $6 $7 $8 $9 X,Y pos of 4 corners*
0 Add a 4 corners polygon primitive as box body*
4,1,4,$2,$3,$4,$5,$6,$7,$8,$9,$2,$3,0*
0 Add four circle primitives for the rounded corners*
1,1,$1+$1,$2,$3*
1,1,$1+$1,$4,$5*
1,1,$1+$1,$6,$7*
1,1,$1+$1,$8,$9*
0 Add four rect primitives between the rounded corners*
20,1,$1+$1,$2,$3,$4,$5,0*
20,1,$1+$1,$4,$5,$6,$7,0*
20,1,$1+$1,$6,$7,$8,$9,0*
20,1,$1+$1,$8,$9,$2,$3,0*%
G04 Aperture macros list end*
%ADD10C,1.500000*%
%ADD11C,1.000000*%
%ADD12RoundRect,0.250000X-0.650000X0.325000X-0.650000X-0.325000X0.650000X-0.325000X0.650000X0.325000X0*%
%ADD13RoundRect,0.225000X-0.250000X0.225000X-0.250000X-0.225000X0.250000X-0.225000X0.250000X0.225000X0*%
%ADD14RoundRect,0.225000X-0.225000X-0.250000X0.225000X-0.250000X0.225000X0.250000X-0.225000X0.250000X0*%
%ADD15R,1.505000X0.802000*%
%ADD16R,2.613000X3.502000*%
%ADD17RoundRect,0.200000X-0.200000X-0.275000X0.200000X-0.275000X0.200000X0.275000X-0.200000X0.275000X0*%
%ADD18R,2.000000X2.000000*%
%ADD19RoundRect,0.250000X-1.100000X0.325000X-1.100000X-0.325000X1.100000X-0.325000X1.100000X0.325000X0*%
%ADD20RoundRect,0.250000X1.275000X-0.750000X1.275000X0.750000X-1.275000X0.750000X-1.275000X-0.750000X0*%
%ADD21R,1.200000X1.200000*%
%ADD22R,1.600000X1.500000*%
%ADD23RoundRect,0.200000X0.200000X0.275000X-0.200000X0.275000X-0.200000X-0.275000X0.200000X-0.275000X0*%
%ADD24RoundRect,0.200000X-0.275000X0.200000X-0.275000X-0.200000X0.275000X-0.200000X0.275000X0.200000X0*%
%ADD25R,3.175000X4.950000*%
G04 APERTURE END LIST*
D10*
%TO.C,TP5*%
X107800000Y-96200000D03*
%TD*%
D11*
%TO.C,FID3*%
X106400000Y-98000000D03*
%TD*%
%TO.C,FID2*%
X108300000Y-85000000D03*
%TD*%
%TO.C,FID1*%
X134400000Y-96800000D03*
%TD*%
D12*
%TO.C,C1*%
X102100000Y-90125000D03*
X102100000Y-93075000D03*
%TD*%
D13*
%TO.C,C5*%
X110400000Y-94325000D03*
X110400000Y-95875000D03*
%TD*%
D14*
%TO.C,C7*%
X122225000Y-95600000D03*
X123775000Y-95600000D03*
%TD*%
D13*
%TO.C,C6*%
X116300000Y-97425000D03*
X116300000Y-98975000D03*
%TD*%
D15*
%TO.C,U1*%
X110405000Y-88665000D03*
X110405000Y-89935000D03*
X110405000Y-91205000D03*
X110405000Y-92475000D03*
X115400000Y-92475000D03*
X115400000Y-91205000D03*
X115400000Y-89935000D03*
X115400000Y-88665000D03*
D16*
X112902500Y-90570000D03*
%TD*%
D17*
%TO.C,R4*%
X122175000Y-97300000D03*
X123825000Y-97300000D03*
%TD*%
D13*
%TO.C,C4*%
X115400000Y-85525000D03*
X115400000Y-87075000D03*
%TD*%
D18*
%TO.C,TP4*%
X141800000Y-99600000D03*
%TD*%
D19*
%TO.C,C11*%
X139100000Y-91825000D03*
X139100000Y-94775000D03*
%TD*%
%TO.C,C10*%
X135700000Y-91825000D03*
X135700000Y-94775000D03*
%TD*%
D13*
%TO.C,C8*%
X141600000Y-91750000D03*
X141600000Y-93300000D03*
%TD*%
%TO.C,C3*%
X106700000Y-90000000D03*
X106700000Y-91550000D03*
%TD*%
D20*
%TO.C,L2*%
X135200000Y-87450000D03*
X135200000Y-82150000D03*
%TD*%
D21*
%TO.C,RV1*%
X128300000Y-95650000D03*
D22*
X127300000Y-98900000D03*
D21*
X126300000Y-95650000D03*
%TD*%
D23*
%TO.C,R3*%
X120625000Y-97300000D03*
X118975000Y-97300000D03*
%TD*%
D24*
%TO.C,R1*%
X108300000Y-89950000D03*
X108300000Y-91600000D03*
%TD*%
D19*
%TO.C,C12*%
X140800000Y-84425000D03*
X140800000Y-87375000D03*
%TD*%
D18*
%TO.C,TP3*%
X141800000Y-81700000D03*
%TD*%
D19*
%TO.C,C9*%
X132300000Y-91825000D03*
X132300000Y-94775000D03*
%TD*%
D12*
%TO.C,C2*%
X104600000Y-90125000D03*
X104600000Y-93075000D03*
%TD*%
D18*
%TO.C,TP1*%
X101700000Y-81700000D03*
%TD*%
%TO.C,TP2*%
X101700000Y-99600000D03*
%TD*%
D24*
%TO.C,R2*%
X116300000Y-94275000D03*
X116300000Y-95925000D03*
%TD*%
D25*
%TO.C,L1*%
X119292500Y-88675000D03*
X128307500Y-88675000D03*
%TD*%
M02*
