%TF.GenerationSoftware,KiCad,Pcbnew,9.0.4*%
%TF.CreationDate,2025-08-21T12:34:08-03:00*%
%TF.ProjectId,EMI_SS_Supply_Electgpl,454d495f-5353-45f5-9375-70706c795f45,rev?*%
%TF.SameCoordinates,Original*%
%TF.FileFunction,Legend,Bot*%
%TF.FilePolarity,Positive*%
%FSLAX46Y46*%
G04 Gerber Fmt 4.6, Leading zero omitted, Abs format (unit mm)*
G04 Created by KiCad (PCBNEW 9.0.4) date 2025-08-21 12:34:08*
%MOMM*%
%LPD*%
G01*
G04 APERTURE LIST*
%ADD10C,0.182880*%
%ADD11R,2.000000X2.000000*%
G04 APERTURE END LIST*
D10*
X136861970Y-87562185D02*
X136861970Y-86647785D01*
X136861970Y-86647785D02*
X136557170Y-87300928D01*
X136557170Y-87300928D02*
X136252370Y-86647785D01*
X136252370Y-86647785D02*
X136252370Y-87562185D01*
X135860484Y-87300928D02*
X135425056Y-87300928D01*
X135947570Y-87562185D02*
X135642770Y-86647785D01*
X135642770Y-86647785D02*
X135337970Y-87562185D01*
X135120256Y-86647785D02*
X134510656Y-87562185D01*
X134510656Y-86647785D02*
X135120256Y-87562185D01*
X133465627Y-87562185D02*
X133465627Y-86647785D01*
X133030198Y-87562185D02*
X133030198Y-86647785D01*
X133030198Y-86647785D02*
X132507684Y-87562185D01*
X132507684Y-87562185D02*
X132507684Y-86647785D01*
X132072255Y-87562185D02*
X132072255Y-86647785D01*
X132072255Y-86647785D02*
X131723912Y-86647785D01*
X131723912Y-86647785D02*
X131636827Y-86691328D01*
X131636827Y-86691328D02*
X131593284Y-86734871D01*
X131593284Y-86734871D02*
X131549741Y-86821957D01*
X131549741Y-86821957D02*
X131549741Y-86952585D01*
X131549741Y-86952585D02*
X131593284Y-87039671D01*
X131593284Y-87039671D02*
X131636827Y-87083214D01*
X131636827Y-87083214D02*
X131723912Y-87126757D01*
X131723912Y-87126757D02*
X132072255Y-87126757D01*
X131157855Y-86647785D02*
X131157855Y-87388014D01*
X131157855Y-87388014D02*
X131114312Y-87475100D01*
X131114312Y-87475100D02*
X131070770Y-87518643D01*
X131070770Y-87518643D02*
X130983684Y-87562185D01*
X130983684Y-87562185D02*
X130809512Y-87562185D01*
X130809512Y-87562185D02*
X130722427Y-87518643D01*
X130722427Y-87518643D02*
X130678884Y-87475100D01*
X130678884Y-87475100D02*
X130635341Y-87388014D01*
X130635341Y-87388014D02*
X130635341Y-86647785D01*
X130330541Y-86647785D02*
X129808027Y-86647785D01*
X130069284Y-87562185D02*
X130069284Y-86647785D01*
X129503226Y-87475100D02*
X129459683Y-87518643D01*
X129459683Y-87518643D02*
X129503226Y-87562185D01*
X129503226Y-87562185D02*
X129546769Y-87518643D01*
X129546769Y-87518643D02*
X129503226Y-87475100D01*
X129503226Y-87475100D02*
X129503226Y-87562185D01*
X129503226Y-86996128D02*
X129459683Y-87039671D01*
X129459683Y-87039671D02*
X129503226Y-87083214D01*
X129503226Y-87083214D02*
X129546769Y-87039671D01*
X129546769Y-87039671D02*
X129503226Y-86996128D01*
X129503226Y-86996128D02*
X129503226Y-87083214D01*
X128458197Y-86647785D02*
X127892140Y-86647785D01*
X127892140Y-86647785D02*
X128196940Y-86996128D01*
X128196940Y-86996128D02*
X128066311Y-86996128D01*
X128066311Y-86996128D02*
X127979226Y-87039671D01*
X127979226Y-87039671D02*
X127935683Y-87083214D01*
X127935683Y-87083214D02*
X127892140Y-87170300D01*
X127892140Y-87170300D02*
X127892140Y-87388014D01*
X127892140Y-87388014D02*
X127935683Y-87475100D01*
X127935683Y-87475100D02*
X127979226Y-87518643D01*
X127979226Y-87518643D02*
X128066311Y-87562185D01*
X128066311Y-87562185D02*
X128327568Y-87562185D01*
X128327568Y-87562185D02*
X128414654Y-87518643D01*
X128414654Y-87518643D02*
X128458197Y-87475100D01*
X127326083Y-86647785D02*
X127238997Y-86647785D01*
X127238997Y-86647785D02*
X127151911Y-86691328D01*
X127151911Y-86691328D02*
X127108369Y-86734871D01*
X127108369Y-86734871D02*
X127064826Y-86821957D01*
X127064826Y-86821957D02*
X127021283Y-86996128D01*
X127021283Y-86996128D02*
X127021283Y-87213843D01*
X127021283Y-87213843D02*
X127064826Y-87388014D01*
X127064826Y-87388014D02*
X127108369Y-87475100D01*
X127108369Y-87475100D02*
X127151911Y-87518643D01*
X127151911Y-87518643D02*
X127238997Y-87562185D01*
X127238997Y-87562185D02*
X127326083Y-87562185D01*
X127326083Y-87562185D02*
X127413169Y-87518643D01*
X127413169Y-87518643D02*
X127456711Y-87475100D01*
X127456711Y-87475100D02*
X127500254Y-87388014D01*
X127500254Y-87388014D02*
X127543797Y-87213843D01*
X127543797Y-87213843D02*
X127543797Y-86996128D01*
X127543797Y-86996128D02*
X127500254Y-86821957D01*
X127500254Y-86821957D02*
X127456711Y-86734871D01*
X127456711Y-86734871D02*
X127413169Y-86691328D01*
X127413169Y-86691328D02*
X127326083Y-86647785D01*
X126760026Y-86647785D02*
X126455226Y-87562185D01*
X126455226Y-87562185D02*
X126150426Y-86647785D01*
X125453741Y-87562185D02*
X125453741Y-86647785D01*
X125453741Y-87518643D02*
X125540826Y-87562185D01*
X125540826Y-87562185D02*
X125714998Y-87562185D01*
X125714998Y-87562185D02*
X125802083Y-87518643D01*
X125802083Y-87518643D02*
X125845626Y-87475100D01*
X125845626Y-87475100D02*
X125889169Y-87388014D01*
X125889169Y-87388014D02*
X125889169Y-87126757D01*
X125889169Y-87126757D02*
X125845626Y-87039671D01*
X125845626Y-87039671D02*
X125802083Y-86996128D01*
X125802083Y-86996128D02*
X125714998Y-86952585D01*
X125714998Y-86952585D02*
X125540826Y-86952585D01*
X125540826Y-86952585D02*
X125453741Y-86996128D01*
X124626427Y-87518643D02*
X124713512Y-87562185D01*
X124713512Y-87562185D02*
X124887684Y-87562185D01*
X124887684Y-87562185D02*
X124974769Y-87518643D01*
X124974769Y-87518643D02*
X125018312Y-87475100D01*
X125018312Y-87475100D02*
X125061855Y-87388014D01*
X125061855Y-87388014D02*
X125061855Y-87126757D01*
X125061855Y-87126757D02*
X125018312Y-87039671D01*
X125018312Y-87039671D02*
X124974769Y-86996128D01*
X124974769Y-86996128D02*
X124887684Y-86952585D01*
X124887684Y-86952585D02*
X124713512Y-86952585D01*
X124713512Y-86952585D02*
X124626427Y-86996128D01*
X136905513Y-88555347D02*
X136426542Y-88555347D01*
X136731342Y-88119918D02*
X136600713Y-88119918D01*
X136600713Y-88119918D02*
X136513627Y-88163461D01*
X136513627Y-88163461D02*
X136470085Y-88207004D01*
X136470085Y-88207004D02*
X136426542Y-88337633D01*
X136426542Y-88337633D02*
X136426542Y-88816604D01*
X136426542Y-88816604D02*
X136470085Y-88947233D01*
X136470085Y-88947233D02*
X136513627Y-88990776D01*
X136513627Y-88990776D02*
X136600713Y-89034318D01*
X136600713Y-89034318D02*
X136731342Y-89034318D01*
X136731342Y-89034318D02*
X136818427Y-88990776D01*
X136818427Y-88990776D02*
X136861970Y-88947233D01*
X136861970Y-88947233D02*
X136905513Y-88816604D01*
X136905513Y-88816604D02*
X136905513Y-88337633D01*
X136905513Y-88337633D02*
X136861970Y-88207004D01*
X136861970Y-88207004D02*
X136818427Y-88163461D01*
X136818427Y-88163461D02*
X136731342Y-88119918D01*
X136034656Y-89034318D02*
X136034656Y-88119918D01*
X136034656Y-88119918D02*
X135686313Y-88119918D01*
X135686313Y-88119918D02*
X135599228Y-88163461D01*
X135599228Y-88163461D02*
X135555685Y-88207004D01*
X135555685Y-88207004D02*
X135512142Y-88294090D01*
X135512142Y-88294090D02*
X135512142Y-88424718D01*
X135512142Y-88424718D02*
X135555685Y-88511804D01*
X135555685Y-88511804D02*
X135599228Y-88555347D01*
X135599228Y-88555347D02*
X135686313Y-88598890D01*
X135686313Y-88598890D02*
X136034656Y-88598890D01*
X134597742Y-88947233D02*
X134641285Y-88990776D01*
X134641285Y-88990776D02*
X134771913Y-89034318D01*
X134771913Y-89034318D02*
X134858999Y-89034318D01*
X134858999Y-89034318D02*
X134989628Y-88990776D01*
X134989628Y-88990776D02*
X135076713Y-88903690D01*
X135076713Y-88903690D02*
X135120256Y-88816604D01*
X135120256Y-88816604D02*
X135163799Y-88642433D01*
X135163799Y-88642433D02*
X135163799Y-88511804D01*
X135163799Y-88511804D02*
X135120256Y-88337633D01*
X135120256Y-88337633D02*
X135076713Y-88250547D01*
X135076713Y-88250547D02*
X134989628Y-88163461D01*
X134989628Y-88163461D02*
X134858999Y-88119918D01*
X134858999Y-88119918D02*
X134771913Y-88119918D01*
X134771913Y-88119918D02*
X134641285Y-88163461D01*
X134641285Y-88163461D02*
X134597742Y-88207004D01*
X133901056Y-88555347D02*
X133770428Y-88598890D01*
X133770428Y-88598890D02*
X133726885Y-88642433D01*
X133726885Y-88642433D02*
X133683342Y-88729518D01*
X133683342Y-88729518D02*
X133683342Y-88860147D01*
X133683342Y-88860147D02*
X133726885Y-88947233D01*
X133726885Y-88947233D02*
X133770428Y-88990776D01*
X133770428Y-88990776D02*
X133857513Y-89034318D01*
X133857513Y-89034318D02*
X134205856Y-89034318D01*
X134205856Y-89034318D02*
X134205856Y-88119918D01*
X134205856Y-88119918D02*
X133901056Y-88119918D01*
X133901056Y-88119918D02*
X133813971Y-88163461D01*
X133813971Y-88163461D02*
X133770428Y-88207004D01*
X133770428Y-88207004D02*
X133726885Y-88294090D01*
X133726885Y-88294090D02*
X133726885Y-88381176D01*
X133726885Y-88381176D02*
X133770428Y-88468261D01*
X133770428Y-88468261D02*
X133813971Y-88511804D01*
X133813971Y-88511804D02*
X133901056Y-88555347D01*
X133901056Y-88555347D02*
X134205856Y-88555347D01*
X132594770Y-88555347D02*
X131898085Y-88555347D01*
X131898085Y-88816604D02*
X132594770Y-88816604D01*
X130330542Y-88119918D02*
X130765970Y-88119918D01*
X130765970Y-88119918D02*
X130809513Y-88555347D01*
X130809513Y-88555347D02*
X130765970Y-88511804D01*
X130765970Y-88511804D02*
X130678885Y-88468261D01*
X130678885Y-88468261D02*
X130461170Y-88468261D01*
X130461170Y-88468261D02*
X130374085Y-88511804D01*
X130374085Y-88511804D02*
X130330542Y-88555347D01*
X130330542Y-88555347D02*
X130286999Y-88642433D01*
X130286999Y-88642433D02*
X130286999Y-88860147D01*
X130286999Y-88860147D02*
X130330542Y-88947233D01*
X130330542Y-88947233D02*
X130374085Y-88990776D01*
X130374085Y-88990776D02*
X130461170Y-89034318D01*
X130461170Y-89034318D02*
X130678885Y-89034318D01*
X130678885Y-89034318D02*
X130765970Y-88990776D01*
X130765970Y-88990776D02*
X130809513Y-88947233D01*
X129459685Y-88119918D02*
X129895113Y-88119918D01*
X129895113Y-88119918D02*
X129938656Y-88555347D01*
X129938656Y-88555347D02*
X129895113Y-88511804D01*
X129895113Y-88511804D02*
X129808028Y-88468261D01*
X129808028Y-88468261D02*
X129590313Y-88468261D01*
X129590313Y-88468261D02*
X129503228Y-88511804D01*
X129503228Y-88511804D02*
X129459685Y-88555347D01*
X129459685Y-88555347D02*
X129416142Y-88642433D01*
X129416142Y-88642433D02*
X129416142Y-88860147D01*
X129416142Y-88860147D02*
X129459685Y-88947233D01*
X129459685Y-88947233D02*
X129503228Y-88990776D01*
X129503228Y-88990776D02*
X129590313Y-89034318D01*
X129590313Y-89034318D02*
X129808028Y-89034318D01*
X129808028Y-89034318D02*
X129895113Y-88990776D01*
X129895113Y-88990776D02*
X129938656Y-88947233D01*
X128893628Y-88119918D02*
X128980713Y-88163461D01*
X128980713Y-88163461D02*
X129024256Y-88250547D01*
X129024256Y-88250547D02*
X128980713Y-88337633D01*
X128980713Y-88337633D02*
X128893628Y-88381176D01*
X128893628Y-88381176D02*
X128806542Y-88337633D01*
X128806542Y-88337633D02*
X128762999Y-88250547D01*
X128762999Y-88250547D02*
X128806542Y-88163461D01*
X128806542Y-88163461D02*
X128893628Y-88119918D01*
X127805056Y-88947233D02*
X127848599Y-88990776D01*
X127848599Y-88990776D02*
X127979227Y-89034318D01*
X127979227Y-89034318D02*
X128066313Y-89034318D01*
X128066313Y-89034318D02*
X128196942Y-88990776D01*
X128196942Y-88990776D02*
X128284027Y-88903690D01*
X128284027Y-88903690D02*
X128327570Y-88816604D01*
X128327570Y-88816604D02*
X128371113Y-88642433D01*
X128371113Y-88642433D02*
X128371113Y-88511804D01*
X128371113Y-88511804D02*
X128327570Y-88337633D01*
X128327570Y-88337633D02*
X128284027Y-88250547D01*
X128284027Y-88250547D02*
X128196942Y-88163461D01*
X128196942Y-88163461D02*
X128066313Y-88119918D01*
X128066313Y-88119918D02*
X127979227Y-88119918D01*
X127979227Y-88119918D02*
X127848599Y-88163461D01*
X127848599Y-88163461D02*
X127805056Y-88207004D01*
X126760027Y-88076376D02*
X127543799Y-89252033D01*
X126542313Y-88119918D02*
X126324599Y-89034318D01*
X126324599Y-89034318D02*
X126150427Y-88381176D01*
X126150427Y-88381176D02*
X125976256Y-89034318D01*
X125976256Y-89034318D02*
X125758542Y-88119918D01*
X124147455Y-88598890D02*
X124190998Y-88555347D01*
X124190998Y-88555347D02*
X124278084Y-88511804D01*
X124278084Y-88511804D02*
X124365169Y-88511804D01*
X124365169Y-88511804D02*
X124452255Y-88555347D01*
X124452255Y-88555347D02*
X124495798Y-88598890D01*
X124495798Y-88598890D02*
X124539341Y-88685976D01*
X124539341Y-88685976D02*
X124539341Y-88773061D01*
X124539341Y-88773061D02*
X124495798Y-88860147D01*
X124495798Y-88860147D02*
X124452255Y-88903690D01*
X124452255Y-88903690D02*
X124365169Y-88947233D01*
X124365169Y-88947233D02*
X124278084Y-88947233D01*
X124278084Y-88947233D02*
X124190998Y-88903690D01*
X124190998Y-88903690D02*
X124147455Y-88860147D01*
X124147455Y-88511804D02*
X124147455Y-88860147D01*
X124147455Y-88860147D02*
X124103912Y-88903690D01*
X124103912Y-88903690D02*
X124060369Y-88903690D01*
X124060369Y-88903690D02*
X123973284Y-88860147D01*
X123973284Y-88860147D02*
X123929741Y-88773061D01*
X123929741Y-88773061D02*
X123929741Y-88555347D01*
X123929741Y-88555347D02*
X124016827Y-88424718D01*
X124016827Y-88424718D02*
X124147455Y-88337633D01*
X124147455Y-88337633D02*
X124321627Y-88294090D01*
X124321627Y-88294090D02*
X124495798Y-88337633D01*
X124495798Y-88337633D02*
X124626427Y-88424718D01*
X124626427Y-88424718D02*
X124713512Y-88555347D01*
X124713512Y-88555347D02*
X124757055Y-88729518D01*
X124757055Y-88729518D02*
X124713512Y-88903690D01*
X124713512Y-88903690D02*
X124626427Y-89034318D01*
X124626427Y-89034318D02*
X124495798Y-89121404D01*
X124495798Y-89121404D02*
X124321627Y-89164947D01*
X124321627Y-89164947D02*
X124147455Y-89121404D01*
X124147455Y-89121404D02*
X124016827Y-89034318D01*
X122362198Y-89034318D02*
X122884712Y-89034318D01*
X122623455Y-89034318D02*
X122623455Y-88119918D01*
X122623455Y-88119918D02*
X122710541Y-88250547D01*
X122710541Y-88250547D02*
X122797626Y-88337633D01*
X122797626Y-88337633D02*
X122884712Y-88381176D01*
X121839684Y-89034318D02*
X121926769Y-88990776D01*
X121926769Y-88990776D02*
X121970312Y-88947233D01*
X121970312Y-88947233D02*
X122013855Y-88860147D01*
X122013855Y-88860147D02*
X122013855Y-88598890D01*
X122013855Y-88598890D02*
X121970312Y-88511804D01*
X121970312Y-88511804D02*
X121926769Y-88468261D01*
X121926769Y-88468261D02*
X121839684Y-88424718D01*
X121839684Y-88424718D02*
X121709055Y-88424718D01*
X121709055Y-88424718D02*
X121621969Y-88468261D01*
X121621969Y-88468261D02*
X121578427Y-88511804D01*
X121578427Y-88511804D02*
X121534884Y-88598890D01*
X121534884Y-88598890D02*
X121534884Y-88860147D01*
X121534884Y-88860147D02*
X121578427Y-88947233D01*
X121578427Y-88947233D02*
X121621969Y-88990776D01*
X121621969Y-88990776D02*
X121709055Y-89034318D01*
X121709055Y-89034318D02*
X121839684Y-89034318D01*
X121230084Y-88424718D02*
X120751113Y-88424718D01*
X120751113Y-88424718D02*
X121230084Y-89034318D01*
X121230084Y-89034318D02*
X120751113Y-89034318D01*
X136861970Y-90506451D02*
X136861970Y-89592051D01*
X136861970Y-89592051D02*
X136557170Y-90245194D01*
X136557170Y-90245194D02*
X136252370Y-89592051D01*
X136252370Y-89592051D02*
X136252370Y-90506451D01*
X135860484Y-90245194D02*
X135425056Y-90245194D01*
X135947570Y-90506451D02*
X135642770Y-89592051D01*
X135642770Y-89592051D02*
X135337970Y-90506451D01*
X135120256Y-89592051D02*
X134510656Y-90506451D01*
X134510656Y-89592051D02*
X135120256Y-90506451D01*
X133465627Y-90506451D02*
X133465627Y-89592051D01*
X132507684Y-90419366D02*
X132551227Y-90462909D01*
X132551227Y-90462909D02*
X132681855Y-90506451D01*
X132681855Y-90506451D02*
X132768941Y-90506451D01*
X132768941Y-90506451D02*
X132899570Y-90462909D01*
X132899570Y-90462909D02*
X132986655Y-90375823D01*
X132986655Y-90375823D02*
X133030198Y-90288737D01*
X133030198Y-90288737D02*
X133073741Y-90114566D01*
X133073741Y-90114566D02*
X133073741Y-89983937D01*
X133073741Y-89983937D02*
X133030198Y-89809766D01*
X133030198Y-89809766D02*
X132986655Y-89722680D01*
X132986655Y-89722680D02*
X132899570Y-89635594D01*
X132899570Y-89635594D02*
X132768941Y-89592051D01*
X132768941Y-89592051D02*
X132681855Y-89592051D01*
X132681855Y-89592051D02*
X132551227Y-89635594D01*
X132551227Y-89635594D02*
X132507684Y-89679137D01*
X131419112Y-90506451D02*
X131419112Y-89592051D01*
X131419112Y-89592051D02*
X131070769Y-89592051D01*
X131070769Y-89592051D02*
X130983684Y-89635594D01*
X130983684Y-89635594D02*
X130940141Y-89679137D01*
X130940141Y-89679137D02*
X130896598Y-89766223D01*
X130896598Y-89766223D02*
X130896598Y-89896851D01*
X130896598Y-89896851D02*
X130940141Y-89983937D01*
X130940141Y-89983937D02*
X130983684Y-90027480D01*
X130983684Y-90027480D02*
X131070769Y-90071023D01*
X131070769Y-90071023D02*
X131419112Y-90071023D01*
X130330541Y-89592051D02*
X130156369Y-89592051D01*
X130156369Y-89592051D02*
X130069284Y-89635594D01*
X130069284Y-89635594D02*
X129982198Y-89722680D01*
X129982198Y-89722680D02*
X129938655Y-89896851D01*
X129938655Y-89896851D02*
X129938655Y-90201651D01*
X129938655Y-90201651D02*
X129982198Y-90375823D01*
X129982198Y-90375823D02*
X130069284Y-90462909D01*
X130069284Y-90462909D02*
X130156369Y-90506451D01*
X130156369Y-90506451D02*
X130330541Y-90506451D01*
X130330541Y-90506451D02*
X130417627Y-90462909D01*
X130417627Y-90462909D02*
X130504712Y-90375823D01*
X130504712Y-90375823D02*
X130548255Y-90201651D01*
X130548255Y-90201651D02*
X130548255Y-89896851D01*
X130548255Y-89896851D02*
X130504712Y-89722680D01*
X130504712Y-89722680D02*
X130417627Y-89635594D01*
X130417627Y-89635594D02*
X130330541Y-89592051D01*
X129633855Y-89592051D02*
X129416141Y-90506451D01*
X129416141Y-90506451D02*
X129241969Y-89853309D01*
X129241969Y-89853309D02*
X129067798Y-90506451D01*
X129067798Y-90506451D02*
X128850084Y-89592051D01*
X128501740Y-90027480D02*
X128196940Y-90027480D01*
X128066312Y-90506451D02*
X128501740Y-90506451D01*
X128501740Y-90506451D02*
X128501740Y-89592051D01*
X128501740Y-89592051D02*
X128066312Y-89592051D01*
X127151912Y-90506451D02*
X127456712Y-90071023D01*
X127674426Y-90506451D02*
X127674426Y-89592051D01*
X127674426Y-89592051D02*
X127326083Y-89592051D01*
X127326083Y-89592051D02*
X127238998Y-89635594D01*
X127238998Y-89635594D02*
X127195455Y-89679137D01*
X127195455Y-89679137D02*
X127151912Y-89766223D01*
X127151912Y-89766223D02*
X127151912Y-89896851D01*
X127151912Y-89896851D02*
X127195455Y-89983937D01*
X127195455Y-89983937D02*
X127238998Y-90027480D01*
X127238998Y-90027480D02*
X127326083Y-90071023D01*
X127326083Y-90071023D02*
X127674426Y-90071023D01*
X126760026Y-90419366D02*
X126716483Y-90462909D01*
X126716483Y-90462909D02*
X126760026Y-90506451D01*
X126760026Y-90506451D02*
X126803569Y-90462909D01*
X126803569Y-90462909D02*
X126760026Y-90419366D01*
X126760026Y-90419366D02*
X126760026Y-90506451D01*
X126760026Y-89940394D02*
X126716483Y-89983937D01*
X126716483Y-89983937D02*
X126760026Y-90027480D01*
X126760026Y-90027480D02*
X126803569Y-89983937D01*
X126803569Y-89983937D02*
X126760026Y-89940394D01*
X126760026Y-89940394D02*
X126760026Y-90027480D01*
X125148940Y-90506451D02*
X125671454Y-90506451D01*
X125410197Y-90506451D02*
X125410197Y-89592051D01*
X125410197Y-89592051D02*
X125497283Y-89722680D01*
X125497283Y-89722680D02*
X125584368Y-89809766D01*
X125584368Y-89809766D02*
X125671454Y-89853309D01*
X124757054Y-90419366D02*
X124713511Y-90462909D01*
X124713511Y-90462909D02*
X124757054Y-90506451D01*
X124757054Y-90506451D02*
X124800597Y-90462909D01*
X124800597Y-90462909D02*
X124757054Y-90419366D01*
X124757054Y-90419366D02*
X124757054Y-90506451D01*
X124408711Y-89592051D02*
X123799111Y-89592051D01*
X123799111Y-89592051D02*
X124190997Y-90506451D01*
X123537854Y-89592051D02*
X123320140Y-90506451D01*
X123320140Y-90506451D02*
X123145968Y-89853309D01*
X123145968Y-89853309D02*
X122971797Y-90506451D01*
X122971797Y-90506451D02*
X122754083Y-89592051D01*
X121142996Y-90071023D02*
X121186539Y-90027480D01*
X121186539Y-90027480D02*
X121273625Y-89983937D01*
X121273625Y-89983937D02*
X121360710Y-89983937D01*
X121360710Y-89983937D02*
X121447796Y-90027480D01*
X121447796Y-90027480D02*
X121491339Y-90071023D01*
X121491339Y-90071023D02*
X121534882Y-90158109D01*
X121534882Y-90158109D02*
X121534882Y-90245194D01*
X121534882Y-90245194D02*
X121491339Y-90332280D01*
X121491339Y-90332280D02*
X121447796Y-90375823D01*
X121447796Y-90375823D02*
X121360710Y-90419366D01*
X121360710Y-90419366D02*
X121273625Y-90419366D01*
X121273625Y-90419366D02*
X121186539Y-90375823D01*
X121186539Y-90375823D02*
X121142996Y-90332280D01*
X121142996Y-89983937D02*
X121142996Y-90332280D01*
X121142996Y-90332280D02*
X121099453Y-90375823D01*
X121099453Y-90375823D02*
X121055910Y-90375823D01*
X121055910Y-90375823D02*
X120968825Y-90332280D01*
X120968825Y-90332280D02*
X120925282Y-90245194D01*
X120925282Y-90245194D02*
X120925282Y-90027480D01*
X120925282Y-90027480D02*
X121012368Y-89896851D01*
X121012368Y-89896851D02*
X121142996Y-89809766D01*
X121142996Y-89809766D02*
X121317168Y-89766223D01*
X121317168Y-89766223D02*
X121491339Y-89809766D01*
X121491339Y-89809766D02*
X121621968Y-89896851D01*
X121621968Y-89896851D02*
X121709053Y-90027480D01*
X121709053Y-90027480D02*
X121752596Y-90201651D01*
X121752596Y-90201651D02*
X121709053Y-90375823D01*
X121709053Y-90375823D02*
X121621968Y-90506451D01*
X121621968Y-90506451D02*
X121491339Y-90593537D01*
X121491339Y-90593537D02*
X121317168Y-90637080D01*
X121317168Y-90637080D02*
X121142996Y-90593537D01*
X121142996Y-90593537D02*
X121012368Y-90506451D01*
X119880253Y-89679137D02*
X119836710Y-89635594D01*
X119836710Y-89635594D02*
X119749625Y-89592051D01*
X119749625Y-89592051D02*
X119531910Y-89592051D01*
X119531910Y-89592051D02*
X119444825Y-89635594D01*
X119444825Y-89635594D02*
X119401282Y-89679137D01*
X119401282Y-89679137D02*
X119357739Y-89766223D01*
X119357739Y-89766223D02*
X119357739Y-89853309D01*
X119357739Y-89853309D02*
X119401282Y-89983937D01*
X119401282Y-89983937D02*
X119923796Y-90506451D01*
X119923796Y-90506451D02*
X119357739Y-90506451D01*
X118530425Y-89592051D02*
X118965853Y-89592051D01*
X118965853Y-89592051D02*
X119009396Y-90027480D01*
X119009396Y-90027480D02*
X118965853Y-89983937D01*
X118965853Y-89983937D02*
X118878768Y-89940394D01*
X118878768Y-89940394D02*
X118661053Y-89940394D01*
X118661053Y-89940394D02*
X118573968Y-89983937D01*
X118573968Y-89983937D02*
X118530425Y-90027480D01*
X118530425Y-90027480D02*
X118486882Y-90114566D01*
X118486882Y-90114566D02*
X118486882Y-90332280D01*
X118486882Y-90332280D02*
X118530425Y-90419366D01*
X118530425Y-90419366D02*
X118573968Y-90462909D01*
X118573968Y-90462909D02*
X118661053Y-90506451D01*
X118661053Y-90506451D02*
X118878768Y-90506451D01*
X118878768Y-90506451D02*
X118965853Y-90462909D01*
X118965853Y-90462909D02*
X119009396Y-90419366D01*
X117964368Y-89592051D02*
X118051453Y-89635594D01*
X118051453Y-89635594D02*
X118094996Y-89722680D01*
X118094996Y-89722680D02*
X118051453Y-89809766D01*
X118051453Y-89809766D02*
X117964368Y-89853309D01*
X117964368Y-89853309D02*
X117877282Y-89809766D01*
X117877282Y-89809766D02*
X117833739Y-89722680D01*
X117833739Y-89722680D02*
X117877282Y-89635594D01*
X117877282Y-89635594D02*
X117964368Y-89592051D01*
X116875796Y-90419366D02*
X116919339Y-90462909D01*
X116919339Y-90462909D02*
X117049967Y-90506451D01*
X117049967Y-90506451D02*
X117137053Y-90506451D01*
X117137053Y-90506451D02*
X117267682Y-90462909D01*
X117267682Y-90462909D02*
X117354767Y-90375823D01*
X117354767Y-90375823D02*
X117398310Y-90288737D01*
X117398310Y-90288737D02*
X117441853Y-90114566D01*
X117441853Y-90114566D02*
X117441853Y-89983937D01*
X117441853Y-89983937D02*
X117398310Y-89809766D01*
X117398310Y-89809766D02*
X117354767Y-89722680D01*
X117354767Y-89722680D02*
X117267682Y-89635594D01*
X117267682Y-89635594D02*
X117137053Y-89592051D01*
X117137053Y-89592051D02*
X117049967Y-89592051D01*
X117049967Y-89592051D02*
X116919339Y-89635594D01*
X116919339Y-89635594D02*
X116875796Y-89679137D01*
X136861970Y-91978584D02*
X136861970Y-91064184D01*
X136861970Y-91064184D02*
X136557170Y-91717327D01*
X136557170Y-91717327D02*
X136252370Y-91064184D01*
X136252370Y-91064184D02*
X136252370Y-91978584D01*
X135860484Y-91717327D02*
X135425056Y-91717327D01*
X135947570Y-91978584D02*
X135642770Y-91064184D01*
X135642770Y-91064184D02*
X135337970Y-91978584D01*
X135120256Y-91064184D02*
X134510656Y-91978584D01*
X134510656Y-91064184D02*
X135120256Y-91978584D01*
X133465627Y-91978584D02*
X133465627Y-91064184D01*
X133465627Y-91064184D02*
X133117284Y-91064184D01*
X133117284Y-91064184D02*
X133030199Y-91107727D01*
X133030199Y-91107727D02*
X132986656Y-91151270D01*
X132986656Y-91151270D02*
X132943113Y-91238356D01*
X132943113Y-91238356D02*
X132943113Y-91368984D01*
X132943113Y-91368984D02*
X132986656Y-91456070D01*
X132986656Y-91456070D02*
X133030199Y-91499613D01*
X133030199Y-91499613D02*
X133117284Y-91543156D01*
X133117284Y-91543156D02*
X133465627Y-91543156D01*
X132377056Y-91064184D02*
X132202884Y-91064184D01*
X132202884Y-91064184D02*
X132115799Y-91107727D01*
X132115799Y-91107727D02*
X132028713Y-91194813D01*
X132028713Y-91194813D02*
X131985170Y-91368984D01*
X131985170Y-91368984D02*
X131985170Y-91673784D01*
X131985170Y-91673784D02*
X132028713Y-91847956D01*
X132028713Y-91847956D02*
X132115799Y-91935042D01*
X132115799Y-91935042D02*
X132202884Y-91978584D01*
X132202884Y-91978584D02*
X132377056Y-91978584D01*
X132377056Y-91978584D02*
X132464142Y-91935042D01*
X132464142Y-91935042D02*
X132551227Y-91847956D01*
X132551227Y-91847956D02*
X132594770Y-91673784D01*
X132594770Y-91673784D02*
X132594770Y-91368984D01*
X132594770Y-91368984D02*
X132551227Y-91194813D01*
X132551227Y-91194813D02*
X132464142Y-91107727D01*
X132464142Y-91107727D02*
X132377056Y-91064184D01*
X131680370Y-91064184D02*
X131462656Y-91978584D01*
X131462656Y-91978584D02*
X131288484Y-91325442D01*
X131288484Y-91325442D02*
X131114313Y-91978584D01*
X131114313Y-91978584D02*
X130896599Y-91064184D01*
X130548255Y-91499613D02*
X130243455Y-91499613D01*
X130112827Y-91978584D02*
X130548255Y-91978584D01*
X130548255Y-91978584D02*
X130548255Y-91064184D01*
X130548255Y-91064184D02*
X130112827Y-91064184D01*
X129198427Y-91978584D02*
X129503227Y-91543156D01*
X129720941Y-91978584D02*
X129720941Y-91064184D01*
X129720941Y-91064184D02*
X129372598Y-91064184D01*
X129372598Y-91064184D02*
X129285513Y-91107727D01*
X129285513Y-91107727D02*
X129241970Y-91151270D01*
X129241970Y-91151270D02*
X129198427Y-91238356D01*
X129198427Y-91238356D02*
X129198427Y-91368984D01*
X129198427Y-91368984D02*
X129241970Y-91456070D01*
X129241970Y-91456070D02*
X129285513Y-91499613D01*
X129285513Y-91499613D02*
X129372598Y-91543156D01*
X129372598Y-91543156D02*
X129720941Y-91543156D01*
X128806541Y-91891499D02*
X128762998Y-91935042D01*
X128762998Y-91935042D02*
X128806541Y-91978584D01*
X128806541Y-91978584D02*
X128850084Y-91935042D01*
X128850084Y-91935042D02*
X128806541Y-91891499D01*
X128806541Y-91891499D02*
X128806541Y-91978584D01*
X128806541Y-91412527D02*
X128762998Y-91456070D01*
X128762998Y-91456070D02*
X128806541Y-91499613D01*
X128806541Y-91499613D02*
X128850084Y-91456070D01*
X128850084Y-91456070D02*
X128806541Y-91412527D01*
X128806541Y-91412527D02*
X128806541Y-91499613D01*
X127195455Y-91978584D02*
X127717969Y-91978584D01*
X127456712Y-91978584D02*
X127456712Y-91064184D01*
X127456712Y-91064184D02*
X127543798Y-91194813D01*
X127543798Y-91194813D02*
X127630883Y-91281899D01*
X127630883Y-91281899D02*
X127717969Y-91325442D01*
X126368141Y-91064184D02*
X126803569Y-91064184D01*
X126803569Y-91064184D02*
X126847112Y-91499613D01*
X126847112Y-91499613D02*
X126803569Y-91456070D01*
X126803569Y-91456070D02*
X126716484Y-91412527D01*
X126716484Y-91412527D02*
X126498769Y-91412527D01*
X126498769Y-91412527D02*
X126411684Y-91456070D01*
X126411684Y-91456070D02*
X126368141Y-91499613D01*
X126368141Y-91499613D02*
X126324598Y-91586699D01*
X126324598Y-91586699D02*
X126324598Y-91804413D01*
X126324598Y-91804413D02*
X126368141Y-91891499D01*
X126368141Y-91891499D02*
X126411684Y-91935042D01*
X126411684Y-91935042D02*
X126498769Y-91978584D01*
X126498769Y-91978584D02*
X126716484Y-91978584D01*
X126716484Y-91978584D02*
X126803569Y-91935042D01*
X126803569Y-91935042D02*
X126847112Y-91891499D01*
X126019798Y-91064184D02*
X125802084Y-91978584D01*
X125802084Y-91978584D02*
X125627912Y-91325442D01*
X125627912Y-91325442D02*
X125453741Y-91978584D01*
X125453741Y-91978584D02*
X125236027Y-91064184D01*
X123624940Y-91543156D02*
X123668483Y-91499613D01*
X123668483Y-91499613D02*
X123755569Y-91456070D01*
X123755569Y-91456070D02*
X123842654Y-91456070D01*
X123842654Y-91456070D02*
X123929740Y-91499613D01*
X123929740Y-91499613D02*
X123973283Y-91543156D01*
X123973283Y-91543156D02*
X124016826Y-91630242D01*
X124016826Y-91630242D02*
X124016826Y-91717327D01*
X124016826Y-91717327D02*
X123973283Y-91804413D01*
X123973283Y-91804413D02*
X123929740Y-91847956D01*
X123929740Y-91847956D02*
X123842654Y-91891499D01*
X123842654Y-91891499D02*
X123755569Y-91891499D01*
X123755569Y-91891499D02*
X123668483Y-91847956D01*
X123668483Y-91847956D02*
X123624940Y-91804413D01*
X123624940Y-91456070D02*
X123624940Y-91804413D01*
X123624940Y-91804413D02*
X123581397Y-91847956D01*
X123581397Y-91847956D02*
X123537854Y-91847956D01*
X123537854Y-91847956D02*
X123450769Y-91804413D01*
X123450769Y-91804413D02*
X123407226Y-91717327D01*
X123407226Y-91717327D02*
X123407226Y-91499613D01*
X123407226Y-91499613D02*
X123494312Y-91368984D01*
X123494312Y-91368984D02*
X123624940Y-91281899D01*
X123624940Y-91281899D02*
X123799112Y-91238356D01*
X123799112Y-91238356D02*
X123973283Y-91281899D01*
X123973283Y-91281899D02*
X124103912Y-91368984D01*
X124103912Y-91368984D02*
X124190997Y-91499613D01*
X124190997Y-91499613D02*
X124234540Y-91673784D01*
X124234540Y-91673784D02*
X124190997Y-91847956D01*
X124190997Y-91847956D02*
X124103912Y-91978584D01*
X124103912Y-91978584D02*
X123973283Y-92065670D01*
X123973283Y-92065670D02*
X123799112Y-92109213D01*
X123799112Y-92109213D02*
X123624940Y-92065670D01*
X123624940Y-92065670D02*
X123494312Y-91978584D01*
X122362197Y-91151270D02*
X122318654Y-91107727D01*
X122318654Y-91107727D02*
X122231569Y-91064184D01*
X122231569Y-91064184D02*
X122013854Y-91064184D01*
X122013854Y-91064184D02*
X121926769Y-91107727D01*
X121926769Y-91107727D02*
X121883226Y-91151270D01*
X121883226Y-91151270D02*
X121839683Y-91238356D01*
X121839683Y-91238356D02*
X121839683Y-91325442D01*
X121839683Y-91325442D02*
X121883226Y-91456070D01*
X121883226Y-91456070D02*
X122405740Y-91978584D01*
X122405740Y-91978584D02*
X121839683Y-91978584D01*
X121012369Y-91064184D02*
X121447797Y-91064184D01*
X121447797Y-91064184D02*
X121491340Y-91499613D01*
X121491340Y-91499613D02*
X121447797Y-91456070D01*
X121447797Y-91456070D02*
X121360712Y-91412527D01*
X121360712Y-91412527D02*
X121142997Y-91412527D01*
X121142997Y-91412527D02*
X121055912Y-91456070D01*
X121055912Y-91456070D02*
X121012369Y-91499613D01*
X121012369Y-91499613D02*
X120968826Y-91586699D01*
X120968826Y-91586699D02*
X120968826Y-91804413D01*
X120968826Y-91804413D02*
X121012369Y-91891499D01*
X121012369Y-91891499D02*
X121055912Y-91935042D01*
X121055912Y-91935042D02*
X121142997Y-91978584D01*
X121142997Y-91978584D02*
X121360712Y-91978584D01*
X121360712Y-91978584D02*
X121447797Y-91935042D01*
X121447797Y-91935042D02*
X121491340Y-91891499D01*
X120446312Y-91064184D02*
X120533397Y-91107727D01*
X120533397Y-91107727D02*
X120576940Y-91194813D01*
X120576940Y-91194813D02*
X120533397Y-91281899D01*
X120533397Y-91281899D02*
X120446312Y-91325442D01*
X120446312Y-91325442D02*
X120359226Y-91281899D01*
X120359226Y-91281899D02*
X120315683Y-91194813D01*
X120315683Y-91194813D02*
X120359226Y-91107727D01*
X120359226Y-91107727D02*
X120446312Y-91064184D01*
X119357740Y-91891499D02*
X119401283Y-91935042D01*
X119401283Y-91935042D02*
X119531911Y-91978584D01*
X119531911Y-91978584D02*
X119618997Y-91978584D01*
X119618997Y-91978584D02*
X119749626Y-91935042D01*
X119749626Y-91935042D02*
X119836711Y-91847956D01*
X119836711Y-91847956D02*
X119880254Y-91760870D01*
X119880254Y-91760870D02*
X119923797Y-91586699D01*
X119923797Y-91586699D02*
X119923797Y-91456070D01*
X119923797Y-91456070D02*
X119880254Y-91281899D01*
X119880254Y-91281899D02*
X119836711Y-91194813D01*
X119836711Y-91194813D02*
X119749626Y-91107727D01*
X119749626Y-91107727D02*
X119618997Y-91064184D01*
X119618997Y-91064184D02*
X119531911Y-91064184D01*
X119531911Y-91064184D02*
X119401283Y-91107727D01*
X119401283Y-91107727D02*
X119357740Y-91151270D01*
X102661970Y-97978584D02*
X102661970Y-97064184D01*
X102226541Y-97978584D02*
X102226541Y-97064184D01*
X102226541Y-97064184D02*
X101704027Y-97978584D01*
X101704027Y-97978584D02*
X101704027Y-97064184D01*
X101268598Y-97630242D02*
X100571913Y-97630242D01*
X142787799Y-83464184D02*
X142613627Y-83464184D01*
X142613627Y-83464184D02*
X142526542Y-83507727D01*
X142526542Y-83507727D02*
X142439456Y-83594813D01*
X142439456Y-83594813D02*
X142395913Y-83768984D01*
X142395913Y-83768984D02*
X142395913Y-84073784D01*
X142395913Y-84073784D02*
X142439456Y-84247956D01*
X142439456Y-84247956D02*
X142526542Y-84335042D01*
X142526542Y-84335042D02*
X142613627Y-84378584D01*
X142613627Y-84378584D02*
X142787799Y-84378584D01*
X142787799Y-84378584D02*
X142874885Y-84335042D01*
X142874885Y-84335042D02*
X142961970Y-84247956D01*
X142961970Y-84247956D02*
X143005513Y-84073784D01*
X143005513Y-84073784D02*
X143005513Y-83768984D01*
X143005513Y-83768984D02*
X142961970Y-83594813D01*
X142961970Y-83594813D02*
X142874885Y-83507727D01*
X142874885Y-83507727D02*
X142787799Y-83464184D01*
X142004027Y-83464184D02*
X142004027Y-84204413D01*
X142004027Y-84204413D02*
X141960484Y-84291499D01*
X141960484Y-84291499D02*
X141916942Y-84335042D01*
X141916942Y-84335042D02*
X141829856Y-84378584D01*
X141829856Y-84378584D02*
X141655684Y-84378584D01*
X141655684Y-84378584D02*
X141568599Y-84335042D01*
X141568599Y-84335042D02*
X141525056Y-84291499D01*
X141525056Y-84291499D02*
X141481513Y-84204413D01*
X141481513Y-84204413D02*
X141481513Y-83464184D01*
X141176713Y-83464184D02*
X140654199Y-83464184D01*
X140915456Y-84378584D02*
X140915456Y-83464184D01*
X140349398Y-84030242D02*
X139652713Y-84030242D01*
X140001055Y-84378584D02*
X140001055Y-83681899D01*
X142787799Y-97064184D02*
X142613627Y-97064184D01*
X142613627Y-97064184D02*
X142526542Y-97107727D01*
X142526542Y-97107727D02*
X142439456Y-97194813D01*
X142439456Y-97194813D02*
X142395913Y-97368984D01*
X142395913Y-97368984D02*
X142395913Y-97673784D01*
X142395913Y-97673784D02*
X142439456Y-97847956D01*
X142439456Y-97847956D02*
X142526542Y-97935042D01*
X142526542Y-97935042D02*
X142613627Y-97978584D01*
X142613627Y-97978584D02*
X142787799Y-97978584D01*
X142787799Y-97978584D02*
X142874885Y-97935042D01*
X142874885Y-97935042D02*
X142961970Y-97847956D01*
X142961970Y-97847956D02*
X143005513Y-97673784D01*
X143005513Y-97673784D02*
X143005513Y-97368984D01*
X143005513Y-97368984D02*
X142961970Y-97194813D01*
X142961970Y-97194813D02*
X142874885Y-97107727D01*
X142874885Y-97107727D02*
X142787799Y-97064184D01*
X142004027Y-97064184D02*
X142004027Y-97804413D01*
X142004027Y-97804413D02*
X141960484Y-97891499D01*
X141960484Y-97891499D02*
X141916942Y-97935042D01*
X141916942Y-97935042D02*
X141829856Y-97978584D01*
X141829856Y-97978584D02*
X141655684Y-97978584D01*
X141655684Y-97978584D02*
X141568599Y-97935042D01*
X141568599Y-97935042D02*
X141525056Y-97891499D01*
X141525056Y-97891499D02*
X141481513Y-97804413D01*
X141481513Y-97804413D02*
X141481513Y-97064184D01*
X141176713Y-97064184D02*
X140654199Y-97064184D01*
X140915456Y-97978584D02*
X140915456Y-97064184D01*
X140349398Y-97630242D02*
X139652713Y-97630242D01*
X102661970Y-84378584D02*
X102661970Y-83464184D01*
X102226541Y-84378584D02*
X102226541Y-83464184D01*
X102226541Y-83464184D02*
X101704027Y-84378584D01*
X101704027Y-84378584D02*
X101704027Y-83464184D01*
X101268598Y-84030242D02*
X100571913Y-84030242D01*
X100920255Y-84378584D02*
X100920255Y-83681899D01*
%LPC*%
D11*
%TO.C,TP4*%
X141800000Y-99600000D03*
%TD*%
%TO.C,TP3*%
X141800000Y-81700000D03*
%TD*%
%TO.C,TP1*%
X101700000Y-81700000D03*
%TD*%
%TO.C,TP2*%
X101700000Y-99600000D03*
%TD*%
%LPD*%
M02*
