M48
; DRILL file {KiCad 9.0.4} date 2025-08-21T12:34:08-0300
; FORMAT={-:-/ absolute / inch / decimal}
; #@! TF.CreationDate,2025-08-21T12:34:08-03:00
; #@! TF.GenerationSoftware,Kicad,Pcbnew,9.0.4
; #@! TF.FileFunction,Plated,1,4,PTH
FMAT,2
INCH
; #@! TA.AperFunction,Plated,PTH,ViaDrill
T1C0.0118
; #@! TA.AperFunction,Plated,PTH,ComponentDrill
T2C0.0394
; #@! TA.AperFunction,Plated,PTH,ViaDrill
T3C0.1181
%
G90
G05
T1
X3.986Y-3.7544
X3.986Y-3.8044
X4.036Y-3.7544
X4.036Y-3.8044
X4.086Y-3.7544
X4.086Y-3.8044
X4.086Y-3.8544
X4.086Y-3.9044
X4.136Y-3.4044
X4.136Y-3.7544
X4.136Y-3.8044
X4.136Y-3.8544
X4.136Y-3.9044
X4.186Y-3.4044
X4.186Y-3.4544
X4.186Y-3.6544
X4.186Y-3.7044
X4.186Y-3.9044
X4.236Y-3.4044
X4.236Y-3.9044
X4.286Y-3.9044
X4.2874Y-3.4882
X4.336Y-3.2044
X4.336Y-3.2544
X4.336Y-3.3044
X4.336Y-3.8544
X4.336Y-3.9044
X4.386Y-3.2044
X4.386Y-3.2544
X4.386Y-3.8544
X4.386Y-3.9044
X4.4094Y-3.4016
X4.4094Y-3.4252
X4.4094Y-3.4488
X4.4094Y-3.4724
X4.4094Y-3.4961
X4.4094Y-3.4961
X4.4094Y-3.5197
X4.4094Y-3.5433
X4.4094Y-3.5669
X4.4094Y-3.5906
X4.4094Y-3.6142
X4.4094Y-3.6378
X4.4094Y-3.6614
X4.4094Y-3.685
X4.4094Y-3.7087
X4.4094Y-3.7323
X4.436Y-3.2044
X4.436Y-3.2544
X4.436Y-3.8044
X4.436Y-3.8544
X4.436Y-3.9044
X4.4449Y-3.4016
X4.4449Y-3.4252
X4.4449Y-3.4488
X4.4449Y-3.4724
X4.4449Y-3.4961
X4.4449Y-3.5197
X4.4449Y-3.5433
X4.4449Y-3.5906
X4.4449Y-3.6142
X4.4449Y-3.6378
X4.4449Y-3.6614
X4.4449Y-3.685
X4.4449Y-3.7087
X4.4449Y-3.7323
X4.445Y-3.5657
X4.445Y-3.5657
X4.4803Y-3.4016
X4.4803Y-3.4252
X4.4803Y-3.4488
X4.4803Y-3.4724
X4.4803Y-3.4961
X4.4803Y-3.5197
X4.4803Y-3.5433
X4.4803Y-3.5669
X4.4803Y-3.5906
X4.4803Y-3.6142
X4.4803Y-3.6378
X4.4803Y-3.6614
X4.4803Y-3.685
X4.4803Y-3.7087
X4.4803Y-3.7323
X4.486Y-3.2044
X4.486Y-3.2544
X4.486Y-3.8044
X4.486Y-3.8544
X4.486Y-3.9044
X4.5315Y-3.7047
X4.536Y-3.2044
X4.536Y-3.2544
X4.586Y-3.2044
X4.586Y-3.2544
X4.5866Y-3.3701
X4.636Y-3.2044
X4.636Y-3.2544
X4.636Y-3.3044
X4.636Y-3.3544
X4.636Y-3.8544
X4.636Y-3.9044
X4.686Y-3.2044
X4.686Y-3.2544
X4.686Y-3.3044
X4.686Y-3.3544
X4.686Y-3.6544
X4.686Y-3.7044
X4.686Y-3.7544
X4.686Y-3.9044
X4.736Y-3.2044
X4.736Y-3.2544
X4.736Y-3.3044
X4.736Y-3.3544
X4.736Y-3.6544
X4.736Y-3.7044
X4.736Y-3.7544
X4.736Y-3.9044
X4.7795Y-3.8307
X4.786Y-3.2044
X4.786Y-3.2544
X4.786Y-3.3044
X4.786Y-3.3544
X4.786Y-3.6544
X4.786Y-3.7044
X4.786Y-3.9044
X4.836Y-3.2044
X4.836Y-3.2544
X4.836Y-3.3044
X4.836Y-3.3544
X4.836Y-3.4044
X4.836Y-3.4544
X4.836Y-3.5044
X4.836Y-3.5544
X4.836Y-3.6044
X4.836Y-3.6544
X4.836Y-3.7044
X4.836Y-3.9044
X4.886Y-3.2044
X4.886Y-3.2544
X4.886Y-3.3044
X4.886Y-3.3544
X4.886Y-3.4044
X4.886Y-3.4544
X4.886Y-3.5044
X4.886Y-3.5544
X4.886Y-3.6044
X4.886Y-3.6544
X4.886Y-3.9044
X4.936Y-3.2044
X4.936Y-3.2544
X4.936Y-3.3044
X4.936Y-3.3544
X4.936Y-3.4044
X4.936Y-3.4544
X4.936Y-3.5044
X4.936Y-3.5544
X4.936Y-3.6044
X4.936Y-3.6544
X4.936Y-3.9044
X4.986Y-3.2044
X4.986Y-3.2544
X4.986Y-3.3044
X4.986Y-3.3544
X4.986Y-3.6544
X5.036Y-3.2044
X5.036Y-3.2544
X5.036Y-3.3044
X5.036Y-3.3544
X5.086Y-3.2044
X5.086Y-3.2544
X5.086Y-3.3044
X5.086Y-3.3544
X5.086Y-3.8544
X5.086Y-3.9044
X5.136Y-3.2044
X5.136Y-3.2544
X5.136Y-3.3044
X5.136Y-3.3544
X5.136Y-3.8044
X5.136Y-3.8544
X5.136Y-3.9044
X5.185Y-3.685
X5.186Y-3.2044
X5.186Y-3.2544
X5.186Y-3.3044
X5.186Y-3.3544
X5.186Y-3.8044
X5.186Y-3.8544
X5.186Y-3.9044
X5.2323Y-3.685
X5.236Y-3.3044
X5.236Y-3.3544
X5.236Y-3.8044
X5.236Y-3.8544
X5.236Y-3.9044
X5.286Y-3.3544
X5.315Y-3.685
X5.336Y-3.3544
X5.3701Y-3.685
X5.386Y-3.3544
X5.436Y-3.4044
X5.436Y-3.4544
X5.4488Y-3.685
X5.486Y-3.5044
X5.5039Y-3.685
X5.5157Y-3.3898
X5.536Y-3.5044
X5.5709Y-3.3898
X5.586Y-3.5044
X5.586Y-3.7544
X5.586Y-3.8044
T2
X4.0039Y-3.2165
X4.0039Y-3.9213
X5.5827Y-3.2165
X5.5827Y-3.9213
T3
X4.1929Y-3.248
X5.3976Y-3.8898
M30
